/* XPM */
static char * left_xpm[] = {
"20 20 233 2",
"  	c None",
". 	c #D77821",
"+ 	c #D97919",
"@ 	c #CE7318",
"# 	c #C56C0D",
"$ 	c #C5660E",
"% 	c #CE7424",
"& 	c #D88127",
"* 	c #E28328",
"= 	c #D87918",
"- 	c #BB6C0D",
"; 	c #C5720D",
"> 	c #C57324",
", 	c #D88A2A",
"' 	c #D88118",
") 	c #BB7022",
"! 	c #B67021",
"~ 	c #E37F23",
"{ 	c #EE851B",
"] 	c #DE7C19",
"^ 	c #BB650D",
"/ 	c #C57218",
"( 	c #E28B2A",
"_ 	c #CE7B16",
": 	c #CE7D25",
"< 	c #C87824",
"[ 	c #995E1C",
"} 	c #9A591B",
"| 	c #E38027",
"1 	c #E29432",
"2 	c #E28C37",
"3 	c #CE842B",
"4 	c #9A5D1B",
"5 	c #442607",
"6 	c #63370B",
"7 	c #BB6C21",
"8 	c #BB742D",
"9 	c #BB7A29",
"0 	c #BB7322",
"a 	c #AB671E",
"b 	c #BB8135",
"c 	c #C3873D",
"d 	c #C38136",
"e 	c #B36C2C",
"f 	c #B36B20",
"g 	c #623711",
"h 	c #211204",
"i 	c #5E360B",
"j 	c #AB5F13",
"k 	c #B37222",
"l 	c #C38632",
"m 	c #BB7B34",
"n 	c #B3732C",
"o 	c #AB601D",
"p 	c #A3581D",
"q 	c #A35913",
"r 	c #A35F1D",
"s 	c #241606",
"t 	c #673A15",
"u 	c #EB9533",
"v 	c #A9651F",
"w 	c #834F17",
"x 	c #925411",
"y 	c #995215",
"z 	c #9B530A",
"A 	c #623A0A",
"B 	c #231506",
"C 	c #674214",
"D 	c #7C4A16",
"E 	c #442A0C",
"F 	c #4B2F14",
"G 	c #99612A",
"H 	c #D28C3D",
"I 	c #CB873B",
"J 	c #C37322",
"K 	c #6B3E13",
"L 	c #261707",
"M 	c #6C4618",
"N 	c #9B590A",
"O 	c #A35E0A",
"P 	c #A35E13",
"Q 	c #AB7322",
"R 	c #B16E2B",
"S 	c #875413",
"T 	c #472A0C",
"U 	c #1C1005",
"V 	c #0F0903",
"W 	c #573913",
"X 	c #C17A2A",
"Y 	c #DD913E",
"Z 	c #C37B2A",
"` 	c #744A18",
" .	c #2B1E0C",
"..	c #75541D",
"+.	c #D8792C",
"@.	c #82511F",
"#.	c #442D0F",
"$.	c #191308",
"%.	c #0E0A04",
"&.	c #191207",
"*.	c #36290F",
"=.	c #C08A35",
"-.	c #E8A84B",
";.	c #EBAF3D",
">.	c #C39240",
",.	c #C39942",
"'.	c #745A26",
").	c #29200D",
"!.	c #755B26",
"~.	c #EB9640",
"{.	c #AA6F26",
"].	c #674317",
"^.	c #281A09",
"/.	c #21170C",
"(.	c #3D2C13",
"_.	c #6F5023",
":.	c #956D2F",
"<.	c #FFB95C",
"[.	c #F5B95C",
"}.	c #F5B24F",
"|.	c #CB9133",
"1.	c #745425",
"2.	c #291F0D",
"3.	c #7A5826",
"4.	c #E29C33",
"5.	c #EB9C33",
"6.	c #EB9C42",
"7.	c #C3812A",
"8.	c #BD7729",
"9.	c #955F1D",
"0.	c #87561A",
"a.	c #824B0F",
"b.	c #7C4F1A",
"c.	c #805621",
"d.	c #8C5C27",
"e.	c #EBA34A",
"f.	c #E29C40",
"g.	c #623E14",
"h.	c #231607",
"i.	c #D89433",
"j.	c #D88B36",
"k.	c #B26B20",
"l.	c #A9661E",
"m.	c #B16A20",
"n.	c #AB672D",
"o.	c #B46C21",
"p.	c #A9651E",
"q.	c #8E5523",
"r.	c #EF953A",
"s.	c #E69740",
"t.	c #C37C35",
"u.	c #CB7B33",
"v.	c #6F421A",
"w.	c #261809",
"x.	c #6C431A",
"y.	c #F5AA54",
"z.	c #E29651",
"A.	c #BB6D2C",
"B.	c #B26C2C",
"C.	c #A95F1D",
"D.	c #A1571D",
"E.	c #A35513",
"F.	c #9C5416",
"G.	c #C15F0D",
"H.	c #D4720F",
"I.	c #BE5D0D",
"J.	c #241305",
"K.	c #673A10",
"L.	c #C56F36",
"M.	c #C56718",
"N.	c #9B5315",
"O.	c #934C13",
"P.	c #934518",
"Q.	c #8B450A",
"R.	c #AB5911",
"S.	c #A2581D",
"T.	c #A15413",
"U.	c #A15813",
"V.	c #C36614",
"W.	c #E88328",
"X.	c #D77819",
"Y.	c #B35B0F",
"Z.	c #62330A",
"`.	c #211202",
" +	c #63330A",
".+	c #A3590A",
"++	c #AA601D",
"@+	c #B3641B",
"#+	c #D37A26",
"$+	c #D97E27",
"%+	c #66390F",
"&+	c #211304",
"*+	c #593006",
"=+	c #D86E13",
"-+	c #B36413",
";+	c #663D12",
">+	c #281908",
",+	c #714D1D",
"'+	c #D87921",
")+	c #AB6612",
"!+	c #B36B13",
"~+	c #231503",
"{+	c #673E0B",
"]+	c #DA8A2F",
"^+	c #A8681F",
"/+	c #623706",
"(+	c #62360B",
"_+	c #663D0B",
":+	c #6B4213",
"<+	c #583610",
"[+	c #291907",
"}+	c #714718",
"|+	c #B36414",
"1+	c #8C5419",
"2+	c #472B0D",
"3+	c #261606",
"4+	c #261908",
"5+	c #28190B",
"6+	c #26190A",
"7+	c #2C1B08",
"8+	c #71461B",
"9+	c #BE7934",
"0+	c #A76622",
"a+	c #714214",
"b+	c #714610",
"c+	c #633B0A",
"d+	c #633F10",
"e+	c #673E13",
"f+	c #674219",
"g+	c #633B11",
"h+	c #593306",
"i+	c #633606",
"j+	c #794208",
". + @ # $ # % & * & = @ # - ; > , ' ) ! ",
"~ { ] $ ^ / & ( _ = & : % : & & _ < [ } ",
"@ ] | & & & & & 1 1 2 , 3 : > : : 4 5 6 ",
"@ @ _ 7 8 9 0 a b c c d 8 8 e f e g h i ",
"2 & @ j f k 8 9 l d b m n o p q r g s t ",
"u ( & a k 8 9 9 k n k v w x y z j A B C ",
"2 ( * k k 0 8 n f v D E F G H I J K L M ",
"( & / N O P Q R S T U V W X Y Z Z `  ...",
"+.& +.f a v @.#.$.%.&.*.=.-.;.>.,.'.).!.",
"u ~.u d d {.].^./.(._.:.<.[.}.|.>.1.2.3.",
"4.5.6.l 7.8.9.0.a.b.c.d.6.e.f.m Q g.h.C ",
"f.i.j.k k k.l.m.n.o.p.q.r.s.~.t.u.v.w.x.",
"y.e.z.n e n A.B.C.D.E.F.G.H.I.z o g J.K.",
"> L.M.N.O.P.Q.P.R.S.T.U.V.W.X.o Y.Z.`. +",
"% % % o q N..+q z E.q ++@+#+$+f f %+&+*+",
"=+= * f -+@+k Z 7 @+@+@+-+a j -+j ;+>+,+",
"& '+/ .+)+0 Z 0 0 0 0 7 0 7 7 !+O A ~+{+",
"u ]+^+;+;+;+A /+/+(+;+;+;+%+_+A :+<+[+}+",
"|+1+2+3+3+L L L s 4+>+5+6+w.4+>+s [+7+8+",
"9+0+}+}+a+M }+b+c+d+e+f+g+g+i c+*+h+i+j+"};
