/* XPM */
static char * right_xpm[] = {
"20 20 232 2",
"  	c None",
". 	c #D77821",
"+ 	c #D97919",
"@ 	c #CE7318",
"# 	c #C56C0D",
"$ 	c #C5660E",
"% 	c #CE7424",
"& 	c #D88127",
"* 	c #E28328",
"= 	c #D87918",
"- 	c #BB6C0D",
"; 	c #C5720D",
"> 	c #C57324",
", 	c #D88A2A",
"' 	c #D88118",
") 	c #BB7022",
"! 	c #B67021",
"~ 	c #E37F23",
"{ 	c #EE851B",
"] 	c #DE7C19",
"^ 	c #BB650D",
"/ 	c #C57218",
"( 	c #E28B2A",
"_ 	c #CE7B16",
": 	c #CE7D25",
"< 	c #C87824",
"[ 	c #995E1C",
"} 	c #9A591B",
"| 	c #E38027",
"1 	c #E29432",
"2 	c #E28C37",
"3 	c #CE842B",
"4 	c #9A5D1B",
"5 	c #442607",
"6 	c #63370B",
"7 	c #BB6C21",
"8 	c #BB742D",
"9 	c #BB7A29",
"0 	c #BB7322",
"a 	c #AB671E",
"b 	c #BB8135",
"c 	c #C3873D",
"d 	c #C38136",
"e 	c #B36C2C",
"f 	c #B36B20",
"g 	c #623711",
"h 	c #211204",
"i 	c #5E360B",
"j 	c #AB5F13",
"k 	c #B37222",
"l 	c #C38632",
"m 	c #BB7B34",
"n 	c #B3732C",
"o 	c #AB601D",
"p 	c #A3581D",
"q 	c #A35913",
"r 	c #A35F1D",
"s 	c #241606",
"t 	c #673A15",
"u 	c #EB9533",
"v 	c #965D24",
"w 	c #9D6723",
"x 	c #B27427",
"y 	c #B27222",
"z 	c #A35E13",
"A 	c #9B5315",
"B 	c #9B530A",
"C 	c #623A0A",
"D 	c #231506",
"E 	c #674214",
"F 	c #764916",
"G 	c #462C11",
"H 	c #5E3D17",
"I 	c #824E17",
"J 	c #A7641E",
"K 	c #B26B20",
"L 	c #C37C35",
"M 	c #CB873B",
"N 	c #C37322",
"O 	c #6B3E13",
"P 	c #261707",
"Q 	c #6C4618",
"R 	c #9B590A",
"S 	c #A35E0A",
"T 	c #5F370B",
"U 	c #281B08",
"V 	c #4D3012",
"W 	c #50320B",
"X 	c #613911",
"Y 	c #8E5419",
"Z 	c #B66D2A",
"` 	c #BA7A29",
" .	c #C37B2A",
"..	c #744A18",
"+.	c #2B1E0C",
"@.	c #75541D",
"#.	c #D8792C",
"$.	c #663D12",
"%.	c #271809",
"&.	c #6B5123",
"*.	c #5A3F19",
"=.	c #493515",
"-.	c #594318",
";.	c #886225",
">.	c #B6843B",
",.	c #C29032",
"'.	c #C39240",
").	c #C39942",
"!.	c #745A26",
"~.	c #29200D",
"{.	c #755B26",
"].	c #EB9640",
"^.	c #6B4617",
"/.	c #261908",
"(.	c #926638",
"_.	c #8A642D",
":.	c #825E2A",
"<.	c #92692E",
"[.	c #B38241",
"}.	c #CD9B4D",
"|.	c #D09743",
"1.	c #CB9133",
"2.	c #745425",
"3.	c #291F0D",
"4.	c #7A5826",
"5.	c #E29C33",
"6.	c #EB9C33",
"7.	c #EB9C42",
"8.	c #C3812A",
"9.	c #6F4618",
"0.	c #241707",
"a.	c #804A0F",
"b.	c #945E20",
"c.	c #BA7E30",
"d.	c #F1A244",
"e.	c #FFB44C",
"f.	c #FCAE4F",
"g.	c #C98B39",
"h.	c #AB7322",
"i.	c #623E14",
"j.	c #231607",
"k.	c #E29C40",
"l.	c #D89433",
"m.	c #D88B36",
"n.	c #291907",
"o.	c #95591B",
"p.	c #B97031",
"q.	c #E68929",
"r.	c #F1902C",
"s.	c #F3933C",
"t.	c #FD9D3D",
"u.	c #E69740",
"v.	c #CD8338",
"w.	c #CB7B33",
"x.	c #6F421A",
"y.	c #261809",
"z.	c #6C431A",
"A.	c #F5AA54",
"B.	c #EBA34A",
"C.	c #E29651",
"D.	c #70481C",
"E.	c #72431B",
"F.	c #D68135",
"G.	c #E68228",
"H.	c #DD7828",
"I.	c #DD731A",
"J.	c #BF661A",
"K.	c #A3500B",
"L.	c #9B4C0A",
"M.	c #241305",
"N.	c #673A10",
"O.	c #C56F36",
"P.	c #C56718",
"Q.	c #934C13",
"R.	c #7E3B15",
"S.	c #83410A",
"T.	c #BD5920",
"U.	c #E77918",
"V.	c #C96D24",
"W.	c #AB5A14",
"X.	c #AB5911",
"Y.	c #B35B0F",
"Z.	c #62330A",
"`.	c #211202",
" +	c #63330A",
".+	c #995215",
"++	c #AF600B",
"@+	c #C16A17",
"#+	c #A3580B",
"$+	c #A35513",
"%+	c #B3641B",
"&+	c #66390F",
"*+	c #211304",
"=+	c #593006",
"-+	c #D86E13",
";+	c #B36413",
">+	c #281908",
",+	c #714D1D",
"'+	c #D87921",
")+	c #A3590A",
"!+	c #AB6612",
"~+	c #B36B13",
"{+	c #231503",
"]+	c #673E0B",
"^+	c #DA8A2F",
"/+	c #A8681F",
"(+	c #623706",
"_+	c #62360B",
":+	c #663D0B",
"<+	c #6B4213",
"[+	c #583610",
"}+	c #714718",
"|+	c #B36414",
"1+	c #8C5419",
"2+	c #472B0D",
"3+	c #261606",
"4+	c #28190B",
"5+	c #26190A",
"6+	c #2C1B08",
"7+	c #71461B",
"8+	c #BE7934",
"9+	c #A76622",
"0+	c #714214",
"a+	c #714610",
"b+	c #633B0A",
"c+	c #633F10",
"d+	c #673E13",
"e+	c #674219",
"f+	c #633B11",
"g+	c #593306",
"h+	c #633606",
"i+	c #794208",
". + @ # $ # % & * & = @ # - ; > , ' ) ! ",
"~ { ] $ ^ / & ( _ = & : % : & & _ < [ } ",
"@ ] | & & & & & 1 1 2 , 3 : > : : 4 5 6 ",
"@ @ _ 7 8 9 0 a b c c d 8 8 e f e g h i ",
"2 & @ j f k 8 9 l d b m n o p q r g s t ",
"u ( & a k v w x y n k f a z A B j C D E ",
"2 ( * k k F G H I J K 0 L L M M N O P Q ",
"( & / R S T U V W X Y Z `  .m  . ...+.@.",
"#.& #.f a $.%.Q &.*.=.-.;.>.,.'.).!.~.{.",
"u ].u d d ^./.Q (._.:.<.[.}.|.1.'.2.3.4.",
"5.6.7.l 8.9.0.E a.b.c.d.e.f.g.m h.i.j.E ",
"k.l.m.k k $.n.o.p.q.r.s.t.u.v.L w.x.y.z.",
"A.B.C.n e D.E.F.G.H.I.J.K.B L.B o g M.N.",
"> O.P.A Q.R.S.T.U.V.W.q X.o j o Y.Z.`. +",
"% % % o q .+++@+#+$+q o %+7 7 f f &+*+=+",
"-+= * f ;+%+k  .7 %+%+%+;+a j ;+j $.>+,+",
"& '+/ )+!+0  .0 0 0 0 7 0 7 7 ~+S C {+]+",
"u ^+/+$.$.$.C (+(+_+$.$.$.&+:+C <+[+n.}+",
"|+1+2+3+3+P P P s /.>+4+5+y./.>+s n.6+7+",
"8+9+}+}+0+Q }+a+b+c+d+e+f+f+i b+=+g+h+i+"};
