/* XPM */

static const char *
tile_data[] = {
  /* width height num_colors chars_per_pixel x_hot y_hot */
  "64 64 239 2 0 0",

  /* colors */
  ".. s symbol1 c #9c8b6a m white",
  "#. s symbol2 c #cda483 m white",
  "a. s symbol3 c #b49c7b m white",
  "b. s symbol4 c #948362 m black",
  "c. s symbol5 c #947b62 m black",
  "d. s symbol6 c #947b5a m black",
  "e. s symbol7 c #a49473 m white",
  "f. s symbol8 c #ac9473 m white",
  "g. s symbol9 c #9c8b73 m white",
  "h. s symbol10 c #a48b6a m white",
  "i. s symbol11 c #9c836a m white",
  "j. s symbol12 c #94835a m black",
  "k. s symbol13 c #9c9473 m white",
  "l. s symbol14 c #a48b73 m white",
  "m. s symbol15 c #a49c7b m white",
  "n. s symbol16 c #b4a47b m white",
  "o. s symbol17 c #ac947b m white",
  "p. s symbol18 c #9c947b m white",
  "q. s symbol19 c #94836a m white",
  "r. s symbol20 c #9c8b62 m white",
  "s. s symbol21 c #a4a47b m white",
  "t. s symbol22 c #8b735a m black",
  "u. s symbol23 c #a4946a m white",
  "v. s symbol24 c #a49c6a m white",
  "w. s symbol25 c #ac946a m white",
  "x. s symbol26 c #9c7b5a m black",
  "y. s symbol27 c #a48362 m white",
  "z. s symbol28 c #ac9c7b m white",
  "A. s symbol29 c #d5b494 m white",
  "B. s symbol30 c #e6cd9c m white",
  "C. s symbol31 c #e6bd94 m white",
  "D. s symbol32 c #e6c59c m white",
  "E. s symbol33 c #eecd9c m white",
  "F. s symbol34 c #dec59c m white",
  "G. s symbol35 c #deb48b m white",
  "H. s symbol36 c #d5bd94 m white",
  "I. s symbol37 c #e6c594 m white",
  "J. s symbol38 c #debd94 m white",
  "K. s symbol39 c #d5bd83 m white",
  "L. s symbol40 c #f6d5ac m white",
  "M. s symbol41 c #f6d5a4 m white",
  "N. s symbol42 c #eecda4 m white",
  "O. s symbol43 c #eed5ac m white",
  "P. s symbol44 c #decd94 m white",
  "Q. s symbol45 c #ffeebd m white",
  "R. s symbol46 c #ffe6bd m white",
  "S. s symbol47 c #ffdeb4 m white",
  "T. s symbol48 c #decd9c m white",
  "U. s symbol49 c #f6deb4 m white",
  "V. s symbol50 c #f6d5b4 m white",
  "W. s symbol51 c #eed5a4 m white",
  "X. s symbol52 c #ffdebd m white",
  "Y. s symbol53 c #f6dea4 m white",
  "Z. s symbol54 c #ffd5b4 m white",
  "0. s symbol55 c #f6deac m white",
  "1. s symbol56 c #ffe6ac m white",
  "2. s symbol57 c #ffe6b4 m white",
  "3. s symbol58 c #ffeeac m white",
  "4. s symbol59 c #ffd5ac m white",
  "5. s symbol60 c #eed59c m white",
  "6. s symbol61 c #ffcd9c m white",
  "7. s symbol62 c #d5c59c m white",
  "8. s symbol63 c #bda47b m white",
  "9. s symbol64 c #e6bd9c m white",
  ".# s symbol65 c #eecdac m white",
  "## s symbol66 c #eedeac m white",
  "a# s symbol67 c #ffd5a4 m white",
  "b# s symbol68 c #e6d5a4 m white",
  "c# s symbol69 c #e6c5a4 m white",
  "d# s symbol70 c #debd9c m white",
  "e# s symbol71 c #debd8b m white",
  "f# s symbol72 c #dec594 m white",
  "g# s symbol73 c #d5b48b m white",
  "h# s symbol74 c #d5bd8b m white",
  "i# s symbol75 c #decdac m white",
  "j# s symbol76 c #d5c594 m white",
  "k# s symbol77 c #deb494 m white",
  "l# s symbol78 c #deac8b m white",
  "m# s symbol79 c #eec59c m white",
  "n# s symbol80 c #ffdeac m white",
  "o# s symbol81 c #cdb48b m white",
  "p# s symbol82 c #bda473 m white",
  "q# s symbol83 c #f6cda4 m white",
  "r# s symbol84 c #f6cdac m white",
  "s# s symbol85 c #cdb494 m white",
  "t# s symbol86 c #cdbd94 m white",
  "u# s symbol87 c #e6cda4 m white",
  "v# s symbol88 c #e6cdac m white",
  "w# s symbol89 c #c5ac83 m white",
  "x# s symbol90 c #cdac94 m white",
  "y# s symbol91 c #cdac83 m white",
  "z# s symbol92 c #8b7b62 m black",
  "A# s symbol93 c #ac8b73 m white",
  "B# s symbol94 c #cdb483 m white",
  "C# s symbol95 c #dec5a4 m white",
  "D# s symbol96 c #decda4 m white",
  "E# s symbol97 c #cdbd8b m white",
  "F# s symbol98 c #cdac8b m white",
  "G# s symbol99 c #deb49c m white",
  "H# s symbol100 c #c5ac8b m white",
  "I# s symbol101 c #d5bd9c m white",
  "J# s symbol102 c #d5ac8b m white",
  "K# s symbol103 c #bd9c7b m white",
  "L# s symbol104 c #736a52 m black",
  "M# s symbol105 c #b4947b m white",
  "N# s symbol106 c #d5b483 m white",
  "O# s symbol107 c #bdac83 m white",
  "P# s symbol108 c #bda483 m white",
  "Q# s symbol109 c #c5a48b m white",
  "R# s symbol110 c #b49c73 m white",
  "S# s symbol111 c #9c8362 m white",
  "T# s symbol112 c #625a41 m black",
  "U# s symbol113 c #b49c83 m white",
  "V# s symbol114 c #c5a47b m white",
  "W# s symbol115 c #d5c58b m white",
  "X# s symbol116 c #cdac7b m white",
  "Y# s symbol117 c #ac9c73 m white",
  "Z# s symbol118 c #7b6a52 m black",
  "0# s symbol119 c #cda47b m white",
  "1# s symbol120 c #d5ac83 m white",
  "2# s symbol121 c #bd9c83 m white",
  "3# s symbol122 c #c5a483 m white",
  "4# s symbol123 c #c5ac7b m white",
  "5# s symbol124 c #9c835a m black",
  "6# s symbol125 c #b4946a m white",
  "7# s symbol126 c #b49473 m white",
  "8# s symbol127 c #bdb48b m white",
  "9# s symbol128 c #bdac7b m white",
  ".a s symbol129 c #bd947b m white",
  "#a s symbol130 c #b4a473 m white",
  "aa s symbol131 c #c5a473 m white",
  "ba s symbol132 c #c5b48b m white",
  "ca s symbol133 c #bda48b m white",
  "da s symbol134 c #cda48b m white",
  "ea s symbol135 c #c5b483 m white",
  "fa s symbol136 c #b48b73 m white",
  "ga s symbol137 c #ac8b6a m white",
  "ha s symbol138 c #73624a m black",
  "ia s symbol139 c #c5ac94 m white",
  "ja s symbol140 c #c5b494 m white",
  "ka s symbol141 c #bdac8b m white",
  "la s symbol142 c #c59c7b m white",
  "ma s symbol143 c #a48b62 m white",
  "na s symbol144 c #d5b49c m white",
  "oa s symbol145 c #cdbda4 m white",
  "pa s symbol146 c #bdb483 m white",
  "qa s symbol147 c #bd9c73 m white",
  "ra s symbol148 c #a4836a m white",
  "sa s symbol149 c #7b6a5a m black",
  "ta s symbol150 c #b4a483 m white",
  "ua s symbol151 c #6a6241 m black",
  "va s symbol152 c #b4ac7b m white",
  "wa s symbol153 c #d5c5a4 m white",
  "xa s symbol154 c #cdc594 m white",
  "ya s symbol155 c #aca473 m white",
  "za s symbol156 c #cdbd9c m white",
  "Aa s symbol157 c #6a5a4a m black",
  "Ba s symbol158 c #b49c6a m white",
  "Ca s symbol159 c #c5bd94 m white",
  "Da s symbol160 c #cdc59c m white",
  "Ea s symbol161 c #b48b6a m white",
  "Fa s symbol162 c #c5ac73 m white",
  "Ga s symbol163 c #6a6a52 m black",
  "Ha s symbol164 c #837b62 m black",
  "Ia s symbol165 c #ac9c83 m white",
  "Ja s symbol166 c #d5ac94 m white",
  "Ka s symbol167 c #c59c73 m white",
  "La s symbol168 c #9c8b5a m white",
  "Ma s symbol169 c #9c7b6a m white",
  "Na s symbol170 c #6a624a m black",
  "Oa s symbol171 c #eec5a4 m white",
  "Pa s symbol172 c #deb483 m white",
  "Qa s symbol173 c #cdb49c m white",
  "Ra s symbol174 c #c59c83 m white",
  "Sa s symbol175 c #bd9483 m white",
  "Ta s symbol176 c #7b6252 m black",
  "Ua s symbol177 c #debda4 m white",
  "Va s symbol178 c #7b7352 m black",
  "Wa s symbol179 c #735a4a m black",
  "Xa s symbol180 c #b48b7b m white",
  "Ya s symbol181 c #aca47b m white",
  "Za s symbol182 c #736241 m black",
  "0a s symbol183 c #c5b49c m white",
  "1a s symbol184 c #bdb494 m white",
  "2a s symbol185 c #c5bd8b m white",
  "3a s symbol186 c #b4ac83 m white",
  "4a s symbol187 c #ac9c6a m white",
  "5a s symbol188 c #b4ac8b m white",
  "6a s symbol189 c #736252 m black",
  "7a s symbol190 c #ac8b62 m white",
  "8a s symbol191 c #a49c73 m white",
  "9a s symbol192 c #ac8b7b m white",
  ".b s symbol193 c #948b6a m white",
  "#b s symbol194 c #d5bda4 m white",
  "ab s symbol195 c #bd9473 m white",
  "bb s symbol196 c #6a6252 m black",
  "cb s symbol197 c #ac9c8b m white",
  "db s symbol198 c #836a5a m black",
  "eb s symbol199 c #9c9462 m white",
  "fb s symbol200 c #6a5a52 m black",
  "gb s symbol201 c #a4947b m white",
  "hb s symbol202 c #b4a48b m white",
  "ib s symbol203 c #aca483 m white",
  "jb s symbol204 c #8b7b5a m black",
  "kb s symbol205 c #6a5a41 m black",
  "lb s symbol206 c #736a4a m black",
  "mb s symbol207 c #7b735a m black",
  "nb s symbol208 c #ac836a m white",
  "ob s symbol209 c #9c946a m white",
  "pb s symbol210 c #736a5a m black",
  "qb s symbol211 c #cdbd83 m white",
  "rb s symbol212 c #8b8362 m black",
  "sb s symbol213 c #6a5241 m black",
  "tb s symbol214 c #c5b47b m white",
  "ub s symbol215 c #7b624a m black",
  "vb s symbol216 c #a49462 m white",
  "wb s symbol217 c #ac8373 m white",
  "xb s symbol218 c #7b625a m black",
  "yb s symbol219 c #94735a m black",
  "zb s symbol220 c #947b52 m black",
  "Ab s symbol221 c #9c7b62 m black",
  "Bb s symbol222 c #837352 m black",
  "Cb s symbol223 c #836a52 m black",
  "Db s symbol224 c #8b7b6a m black",
  "Eb s symbol225 c #8b7b52 m black",
  "Fb s symbol226 c #5a5239 m black",
  "Gb s symbol227 c #5a5241 m black",
  "Hb s symbol228 c #524a39 m black",
  "Ib s symbol229 c #524129 m black",
  "Jb s symbol230 c #625241 m black",
  "Kb s symbol231 c #5a4a39 m black",
  "Lb s symbol232 c #624a39 m black",
  "Mb s symbol233 c #5a5a4a m black",
  "Nb s symbol234 c #524a31 m black",
  "Ob s symbol235 c #5a4a31 m black",
  "Pb s symbol236 c #5a4a41 m black",
  "Qb s symbol237 c #625239 m black",
  "Rb s symbol238 c #524131 m black",
  "Sb s symbol239 c #4a4131 m black",

  /* pixels */
  "..#.a...b.c.b.d.e.f.g...h.e.i.j.b...k.e.l...m.n.g.l.m.o.p...g.f.......q.j.c.r.l.s.f.j.t...u...v.i.q...w.h.q.d...x.y.u.f.z.a.h.j.",
  "A.B.C.D.E.E.F.G.H.I.J.K.D.L.M.N.O.B.P.N.Q.R.S.T.B.B.N.U.V.E.W.X.E.Y.U.Z.0.S.U.1.2.R.3.4.Y.W.W.W.N.B.N.N.5.F.I.N.4.M.6.E.M.Y.S.7.",
  "8.9.I.H.G.I..#L.W.L.O.E.N.##a#O.O.0.O.##O.##b#N.D.c#T.N.B.d#e#f#O.c#I.g#h#D.E.0.J.d#B.i#I.d#D.j#D.f#d#f#f#D.k#h#l#h#9.m#D.I.d#r.",
  "l.H.I.A.g#F.N.n#F.N.N.N.F.F.k#o#h#d#M.f#8.p#8.H.d#J.e#f#F.J.H.H.J.J.D.q#W.N.F.H.r#s#A.m#F.O.O.m#t#E.u#B.v#N.9.J.G.k#A.g#w#x#y#z#",
  "A#s#B#g#c#B.C#G.8.y#o#g#A.e#g#o#D#E.D#D.F.h#H.J.E#o#o#F.D.u#N.v#J.F#8.n.w#G.F.N.F.s#F#F#o#G#j#H#H#H.D.F.g#C.I#h#J#k#g#y#w#K#o.L#",
  "M#D.o##.w#N#o#F#g#A.J.s#G.A.F.c#J.J.H.F.B.c#H.g#D.J.H.J.J.J.t#e#A.H.9.m#N.N.F.d#y#K#O#F#8.p#P#K#F#K.t#y#O#y#o#N#K#y#A.J.Q#R#S#T#",
  "U#u#J.#.a.8.o#d#d#g#A.y#F#y#o#J#H.j#C#F.F.I#f#c#F.J.d#h#F#y#w#V#C#G.s#V#Q#y#A.g#A.J.F.J.d#d#W#d#H.7.D.H.A.g#H.A.J.e#s#X#P#Y#a.Z#",
  "z.D.A.g#J.J.E#F#P#0#P##.w#1#x#o#g#F#8.2#8.3#O#y#w#N#A.B#J#o#e#d#H.g#g#x#y#y#y#g#A.h#y#4#J.I#B#g#o#H.I#7.H.s#3#8.0#V#B#Q#w#P#u.Z#",
  "5#w#y#A.I#f#A.w#3#V#p#p#f.R#6#R#R#7#R#K#8#o#g#x#9#a.6#f.f..ap#K##a2#4#3#a.R#7#n.Q#w#V#P#8.K#p#P#M#K#aa3#3#F#B#A.ba8.4#caO#f.Y#Z#",
  "M#7.e#s#J.H.o#w#s#w#daO#9#Q#w#o#w#w#Q#eaH#A.baF#O#w#x#E#o#J#3#3#O#3#F#9#8.F#F#H.O#8.3#8.R#far.h.gaR#2#8.8.2#7#7#ea8.f.7#n.z.f.ha",
  "o.k#B#y#y#o#H#g#u.A#w.f.K#8.iag#jas#baH#y#O#P#3#v.M#R#P#F#o#x#g#p#3#8.H#y#w#kaV#8.2#P#jag#o#H#y#8.daw#x#B#3#P#la8.P#u.gamaA#..ha",
  "M#e#H.g#s#A.t#k#H.nas#s#nas#oak#H.naH.o#s#w#H#y#t#A.pa8.2#n.P#lan.Q#eaF#A.o#H#V#8.K#Y#R#Q#8.U#qao#F#O#3#F#H#H#y#K#3#w#w.ray.g.sa",
  "2#W.v#F.e#s#w#w#K#caK#ca8.3#2#ta3#baF#baw#w#iaH#B#iao#s#o#g#s#w#V#O#3#P#8.B#s#H.d#I#g#s#s#o#H#P#y#O#qao.Y#qao.w.K#w#Q#M#S#S#y.ua",
  "2#O.B.D.k#F#P#K#R#M#n.K#P#3#O#P#qaa.va3#P#3#eaiaF.waxaA.ja3#yaf.laP#8.8.K#8.8.H#y#Q#eaF#s#3#w#H#H.s#baJ#zaA.E#iay#P#P#7#f.A#S#Aa",
  "f.c#u#F.J.F#E#s#A.E#g#s#bada9#lajaH#g#s#s#I#t#J.zat#o#jao#I#H.A.baF#h#nao#o#w#V#iaH#g#H#n.7#R#3#z.f.Bata8.F#9#K#iaH#8.cakaU#e.sa",
  "i.y#B#y#w#4#H#J.ka0#w#H#N#eag#o#zaJ.s#zaf#H.d#H.zaH.bas#H.E#nat#I#g#H#s#h#s#A.B#jaJ#baca6#w.2#F#Cay#P#H#o#E#x#9#l.h.f.tao.u.l.sa",
  "e.7.u#i#j#DaH.D#t#4#8.O#4#P#8.0#U#V#H#jaw#U#Y#7#O#V#O#a.6#f.R#V#paw#4#P#V#M#f.Eaz.V#w#o#h#zaB#y#baN#eaP#FaH#w#X#baB#w#w#n.e.e.Ga",
  "a.b#u#b#u#v#D#C#B.d#o#kalaqaH#g#bax#eacaw#P#H#o#a.3#w#H#y#O#baw#eaH#O#taK#K#ca#.F#s#H#P#4#w#ba4#R#P#4#O#o#h#t#w#9#3#H#eacakaz.Ha",
  "h.H.H.h#A.w#y#O#a.Y#o.R#f.M#7#ta3#8.Ia6#r.y.S#..w#8.IaR#f.K#8.kaw#eaH#h#F#Ja3#P#V#O#ka4#P#w#R#n.qaa.P#8.R#K#u.S#KaY#qaw.g.LaMaNa",
  "a.Oau#D.PaH#3#w#F#ca#.jaF#F#P#f.qaP#3#kaw#F#kan.7#a.K#kaO#K#e.r.qaU#w#s#F#4#2#R#8.ca#.s#bay#8.R#w#QaA.jakaF#Qas#g#F#P#R#l.mai.Aa",
  "w.k#g#w##.R#7#fan.2#a.P#2#P#Q#a.f.a.O#Q#bao#F#P#ba3#R#2#O#H#A.s#n.Ra9#F#H#3#o#F#H#Q#Y#7#f.R#P#8.a.2#n.SaR#a.H#H#a.M#w.rar.i.raTa",
  "n.d#g#g#I#I#1#K#u.RaF#H#3#n.w#iao#s#w#n.3#H#H#P#f.M#n.F#Uas#o#caP#3#O#w#x#8.4#P#H#2#u.maM##ay#jas#x#P#a.Q#P#a.l.H#P#ta7#f.A#l.Va",
  "M#d#h#J.I#J.A.baa.y#s#w#qaf.w.f.n.8.o.u.7#kaF#kaP#R#o.a.8.U#V#caf.7#o.O#V#M#6#Y#P#P#U#P#o#QaH.I#ba3#P#O#w#caV#taH#iaO#U#R#l...Wa",
  "S#h#f#A.ealaO#B#dap#7#w.p#H#w#o#O#Q#3#a.V#H#8.a.H#a.caH#F#caa.P#K#Y#.a8.y#H#w#F.taf.Xaz.4#ca8.H#bao#A.H#4#U#8.F#YataIan.o...i.Za",
  "Iae#w#bad#d#t#H#4#U#qaz.8.8.0aF.baiao#iaw#tacaw#w#kaV#kabaO#1ao#2akaF#waH.O#3ag#8#ba9#o.#aP#H#8.v.z.bas#t#eakaw#z.z...z.a.taIaL#",
  "P#c#I#g#o#H#8.a.8.U#R#w.l.gan.F#w#U#Bah.i.mau.M#O#H#E#s#7.H.xaza8.o.4a8.ka3#O#F#baDa7.baH#B#bax#O#jao#t#jaw#z.f.n.8.kaH#ja5aa.6a",
  "j.H#o#A.bao#g#s#H#w#P#K#R#tay#oaH#K#e.gaY#kay#jaa.4#U#8.taCao#kaP#9#cao#E#jay#kataw#H#3#8.taqaa.w#g#I#g#P#Y#7al.8aa.P#tan.9a.bha",
  "h.F.c#F.A.o#s#J.#bH.baiaw#taP#o#zaF#n.kay#iaO#F#H#o#w#O#o#zas#eaf.V#w#ka7#f.Y#8.H#V#f.n.3#P#R#qaU#3#w#kaK#a.f.6#taO#P#kataY#o.L#",
  "b.F#y#2aJ#H.t#I#s#H#y#jag#x#jag#jaP#B#iao#H#ka3#P#kaB#kao#A.ba7#ta3#B#U#6#Y#O#g#x#8.8.P#y#w#kaV#2#R#R#P#y#o#H#V#IaP#3aH#5aU#e.6a",
  "IaI.I#A.s#w#a.abu.h.S#z.V#P#ka3#8.P#O#iao#o#zad#t#I#H#H#B#o#Qay#w#s#o#s#A.g#s#o#a.H#H#H#w#8.caw#n.Q#bas#o#H#s#H.n.U#yaU#a.8ah.bb",
  "z.I.C#c#W.v#I#H.s#F#O#iao#H#F#O#jaF#P#kaw#P#Q#eajay#n.o.R#R#3#K#f.7##aQ#w#n.M#maP#g#t#iaw#O#jabataw#o#jaw#9#H#babaH#kaP#P#cbYadb",
  "m.J.C#u#N.C#o#3#f.gau.Y#2#P#H#o#H#x#O#bax#baiaH.H#s#o#t#A.K#a.6#w.faR#R#7#gaa.y#o#A.ban.P#paja2aw#a.ebY#F#Cataw.h.u.o.z.f.u...fb",
  "j.H#e#H.d#h#s#t#w#w#o#4#F#eao#A.9#3#F#3#3#R#7#7#u.4aa.a.w#O#H#x#O#Y#h.Y#H#P#v.f.t#baH#n.H#ba7.d#t#P#a.n.s#s#H#x#Y#Y#h.l.f.z.o.6a",
  "R#H.o#g#bag#H.H.d#t#I#h#o#s#w#8.K#f.Y#6#K#caw#8.F#bazaJ.t#jao#w#s#eakay#bakaw#o#Q#O#8#w#baQaE#baP#a.taK#f.z.qaO#H#P#R#u.o.a.gbsa",
  "a.H.V#p#K#4#P#O#R#f.Baz.a.F#eaw#Jaw#V#taa.3##aa.H#H#h#H#O#3#9#O#A.o#o#iao#F#pas#s#bag#jaO#F#baO#x#P#w#H#baQaE#jaF#F#w#iaO#hbM#6a",
  "kau#f#A.t#I#g#H#o#A.t#A.t#H.d#t#banat#x#9#R#2#8.9#3#O#3#n.n.F#baO#Q#R#P#O#n.7#w.n.H#8.P#R#Y#a.R#Y#f.Y#Q#baH#H#a.w.z.qata2#e...Aa",
  "7#T.J.f#A.s#w#O#gan.y#8.2#4ah.f.w#jaJ#w#P#Y#R#P#P#O#3#n.P#9#H#H.s#t#y#H#A.O#R#a.n.baH.H.I#j#s#s#n.cay#baA.s#bax#w#H#kaP#a.U#e.db",
  "ibc#D.F.F.h#Qao#8.iaF#8#P#3#o#I#o#caqayaU#4#8.P#O#kay#O#kaV#n.P#P#H#w#R#z.6#ga8.7#ta3#O#Q#w#w#H#a.z.7#Y#kaF#o#s#8.8.ta7#o.q...sa",
  "gaH.h#g#g#O#3#9#ca4#2#7#r.e.K#P#O#R#Y#qabazaJ.s#bao#iag#2aiaw#8.s#A.s#V#w#ca3#o#jay#P#8.#acay#w#kaK#f.R#kaI#H.O#P#w#P#ka7#..MaNa",
  "a.F.F.F.7.A.o#3#O#x#s#F#jaH#F#H#bax#baH#jabaH#O#8.P#n.V#baw#F#O#8.Raw.7#P#w#Raa.9#3#8.lakaH#F#3#panas#o#H#H#x#O#P#w#2#Y#q.jbc.Ta",
  "kaj#B#w#2#Y#Y#ka3#baU#may.O#H#bacan.Yaqaa.n.z.Y#f.Y#kaH#O#n.8au.w.u.z.8.9#H#bat#H#P#taqa#aP#w#baP#n.kag#O#7#u.w.3#kah#Q#taz.Y#Ta",
  "e.e#D#u#D.H.iabax#w#Q#babaQ#a.x#o#baQ#O#P#Q#8.Q#babas#w#pax#o#s#babas#babaH#H#s#9#O#x#baw#H#eax#vaO#F#P#n.8.a.Q#n.R#z.f.a.z...kb",
  "Iau#f#H.jaA.J.I#n.f.f.V#ka7#h.kaw#H#zay#z.R#P#zag#pataR#o.R#n.3ao#s#7.F.zay#n.Ya7#Y#a.8.taK#Y#z.R#eazao#H#o#w#O#w#P#H#O#H#O#o.L#",
  "K#O..#u#B.d#zaA.w#s#s#baI#H.H.d#7.naH#banas#t#s#H#s#babaA.t#7.d#t#A.babaH#w#H#H.H#F#9#O#F#baw#H#n.s#s#xanao#O#3#f.P#H#eatao.e.lb",
  "l.y#s#s#B#U#K#8.7#iabaV#cabaF#taK#taR#8.a.a.K#P#p#cao#o#baH#y#8#y#iaE#H.I#t#g#Cag#jabaB#iaw#A.zaE#kaO#y#H#O#V#P#O#H#s#O#Y#l.e.mb",
  "P#d#H.J.s#V#8.J#z.8.a.Y#K#U#n.y#P##.jaw#3#2#9#F#P#o#t#F#w#H#O#3#P#w#s#t#A.jaP#qaa.w#s#O#8.a.9#o#zaw#kabaF#O#n.V#jaw##ao.h...i.L#",
  "raA.A.F.A.H#R#BaQ#n.f.f.a.R#a.naI#n.A#w.iaH.P#nbu.R#P#a.P#B#o#x#o#O#K#f.Y#8.8.x#O#O#s#H#H#eaH#A.O#pas#o#ia4#a.K#s#H#kaw#taR#gbmb",
  "y.x#y#V#K#o#A.J.eaI#s#jaA.H#F#H#w#x#w#P#qa7#2#8.O#x#3#P#8.P#Q##aR#2#8.H#g#H#F#8.O#7#r...p#P#P#u.paA.bata6#f.a.#aS#e.qa5aP#u.S#6a",
  "obH.H.D#u#zaH.t#o##aV#ban.3#baba4#O#o#Das#t#eaeaF#8.4#kaw#3#eao#H#w#y#jaw#F#P#O#w#8.V#P#w#F#w#9#Q#O#w#kan.3#H#t#A.w#a.taf.w.l.pb",
  "R#t#8.3#qbs#H.ba9#K#w#paqaR#H#P#9#P##ajaI#T.I#ean.dabas#B#8.3#O#w#s#o#ka6#u.K#eaF#F#w#P#w#3#F#eaR#2#8.bag#t#A.eaO#2#n.P#P#e.A#L#",
  "z.h#I#F.7.o#H.s#w#y#s#N#R#2##.H#9#y#zao#O#U#p#3aeay#s#B#P#tay#t#bay#P#4#R#P#V#ka8.qaa.p#R#a.V#O#O#3#ta8.8.taR#8a8.a.K#w.l.5#rbsb",
  "b.g#F.T.o#o#O#y#4##.w#Q#qa7#U#V#w#H#O#jao#H#bay#8.3#R#Y#w.maR#3#h#s#w#H#o#w#P#qa#a3#3#H#B#F#jaJ#bas#o#jaw#O#H#J#baw#U#R#o.e.f.sa",
  "P#B.H.J.F.D#F.I#A.w#8.F#3#R#.a2#8.O#O#Q#tan.H#9#G#E#o#A.ba9#Q#8.R#8.eax#eaO#F#baF#w#o#A.s#E#Jao#8.O#O#F#P#9#P#8.baH#8.f.S#..h.6a",
  "a.J.o#8.y#baJatb3#n.M#abtafamaA#9#F##bF#o.7af.H#B#w#ka3#baV#8.ka6#R#O#y#jag#H.I#g#baH#V#O#V#K#n.F.o#H#y#t#A.bakag#bax#n.e.f.e.ub",
  "e.7.C.g#bay#O#P#o#H.A.H#s#naH#zag#baQ#O#H#x#bas#g#baF#eaw#F#H#t#J.s#A.E#o#s#w#P#h#F#F#w#w#3#8.O#y#n.o.Y#n.s#o#ja7af.z.f.f.o.z.Z#",
  "o.g#4#8.y#F#K#w.maH#O#7#5aA.0aH#o#iaQ#K#o.gao.R#B#H#o#H.H#8.R#f.4#s#7.J.s#y#bao#w#P#8.y#jaJ#H#8.baH#w#w#O#8.a.n.3#baF#8.Y#o.e.Ta",
  "A#u#D.8.M#y#y#7#LaYabaE#w#n.8.P#y#ba9#P#8.w.f.IaB#baO#8.3#3#o#A.k#o#w#taabY#2#9#Q#8.8.Q#w#P#P#P#8.3#baO#7#vba.w#qaU#w#a.l.S#S#lb",
  "U#D.H.J.J.y#w#x#2abaw#P#P#o#F#O#w#w#O#a.8.P#H#ba3#w#8.P#8.3#H#x#h.w.z.V#w#w#w#F#o#a.f.7#w#H#F#w#H#w#F#kaw#8.P#ta3#3#n.P#M#e.e.Ta",
  "e.w#G.I#N#l.Bada9#z.5#S#w.R#a.Y#3#8.a.w.f.2#K#a.p#a.7#f.u.gaS#La2#8.a.8.U#8.n.K#P#R#U#a.P#a.a.a.P#a.8.K#P#9#P#8.taf.h.a.a.w.A#pb",
  "maJ.H.j#o#K#Y#o.K#a.a.K#K#P#3#K#8.P#laf.7#R#a.7#mawbvb7#n.kaQ#3ataK#a.R#a.n.3#n.gaf.n.2#f.h.h.e.R#R#z.R#f.a.a.3#z.gar.f.a.l.h.L#",
  "P#u#f#J.UaCaK#S#u.f.l.Ba9aA#w.l.magah.ramao.K#U#8.qaz.abtataa.e.o.7#8aM#a.taa.f.f.o.u.A#l.u.o.a.a.z.a.Y#o.f.z.f.z.w.z.K#tau.l.xb",
  "3aN.N.C#baa.g.u.a.gbgama..nbS#rab.ybd.zbc.maA#R#5#q.d.b.rae.r.i.o.f.u.h.l.h.h..bf.l.o.e.e.rae.z.S#S#S#obM#z.r.i.magba.Iaf.i...Ta",
  "n.u#u#o#Ia......g.S#b.c.S#jbAbc...c.b.z#S#b.r.g...u.S#b.d.t.BbCbS#i.jbd.b.i...l.5#q.i.e.Abj.DbS#jbdbEbz#i.u.b.z#Abi.l.r.i.c.i.Na",
  "b.f.L#FbGbAaGbHbIbHbGbJbGbKbFbLbMbKbHbT#JbGbNbObGbGbkbT#KbPbKbKbHbFbPbFbJbGbQbJbGbRbSbIbHbPbFbKbGbKbGbFbKbGbFbKbGbJbGbQbGbGbJbKb",
};
