/* XPM */

static const char *
blue_piece_data[] = {
  /* width height num_colors chars_per_pixel x_hot y_hot */
  "64 64 196 2 0 0",

  /* colors */
  ".. s symbol1 c #919166 m white",
  "#. s symbol2 c #ffb688 m white",
  "a. s symbol3 c #b6b688 m white",
  "b. s symbol4 c #b69166 m white",
  "c. s symbol5 c #b66d66 m white",
  "d. s symbol6 c #b6b677 m white",
  "e. s symbol7 c #b69177 m white",
  "f. s symbol8 c #919177 m white",
  "g. s symbol9 c #da9177 m white",
  "h. s symbol10 c #91b666 m white",
  "i. s symbol11 c #b69155 m white",
  "j. s symbol12 c #916d66 m black",
  "k. s symbol13 c #b6b666 m white",
  "l. s symbol14 c #919155 m black",
  "m. s symbol15 c #dab677 m white",
  "n. s symbol16 c #b69188 m white",
  "o. s symbol17 c #dab699 m white",
  "p. s symbol18 c #ffda99 m white",
  "q. s symbol19 c #ffdaaa m white",
  "r. s symbol20 c #ffffaa m white",
  "s. s symbol21 c #ffb699 m white",
  "t. s symbol22 c #dada99 m white",
  "u. s symbol23 c #ffffbb m white",
  "v. s symbol24 c #ffff99 m white",
  "w. s symbol25 c #ffffcc m white",
  "x. s symbol26 c #ffdabb m white",
  "y. s symbol27 c #dadabb m white",
  "z. s symbol28 c #b691bb m white",
  "A. s symbol29 c #916dbb m white",
  "B. s symbol30 c #6d6dbb m white",
  "C. s symbol31 c #4824aa m black",
  "D. s symbol32 c #2448bb m black",
  "E. s symbol33 c #2424aa m black",
  "F. s symbol34 c #4848aa m black",
  "G. s symbol35 c #916d99 m white",
  "H. s symbol36 c #b691aa m white",
  "I. s symbol37 c #b6b6aa m white",
  "J. s symbol38 c #dadaaa m white",
  "K. s symbol39 c #dada88 m white",
  "L. s symbol40 c #ffda88 m white",
  "M. s symbol41 c #ffb6aa m white",
  "N. s symbol42 c #dab688 m white",
  "O. s symbol43 c #4824cc m black",
  "P. s symbol44 c #2424bb m black",
  "Q. s symbol45 c #4824bb m black",
  "R. s symbol46 c #4848bb m black",
  "S. s symbol47 c #242499 m black",
  "T. s symbol48 c #482499 m black",
  "U. s symbol49 c #6d6d99 m black",
  "V. s symbol50 c #b69199 m white",
  "W. s symbol51 c #dab6bb m white",
  "X. s symbol52 c #2448cc m black",
  "Y. s symbol53 c #2424cc m black",
  "Z. s symbol54 c #482488 m black",
  "0. s symbol55 c #242488 m black",
  "1. s symbol56 c #dab6aa m white",
  "2. s symbol57 c #6d6d66 m black",
  "3. s symbol58 c #6d6dcc m white",
  "4. s symbol59 c #4824dd m black",
  "5. s symbol60 c #4848cc m black",
  "6. s symbol61 c #6d4888 m black",
  "7. s symbol62 c #dada77 m white",
  "8. s symbol63 c #da9188 m white",
  "9. s symbol64 c #6d4844 m black",
  ".# s symbol65 c #9191cc m white",
  "## s symbol66 c #2448dd m black",
  "a# s symbol67 c #4848dd m black",
  "b# s symbol68 c #482477 m black",
  "c# s symbol69 c #6d6d88 m black",
  "d# s symbol70 c #916d55 m black",
  "e# s symbol71 c #b6b6bb m white",
  "f# s symbol72 c #2448aa m black",
  "g# s symbol73 c #242477 m black",
  "h# s symbol74 c #916d44 m black",
  "i# s symbol75 c #4848ee m black",
  "j# s symbol76 c #6d24dd m black",
  "k# s symbol77 c #484899 m black",
  "l# s symbol78 c #240088 m black",
  "m# s symbol79 c #916d88 m white",
  "n# s symbol80 c #6d48dd m white",
  "o# s symbol81 c #4824ee m black",
  "p# s symbol82 c #6d24ee m black",
  "q# s symbol83 c #6d4877 m black",
  "r# s symbol84 c #da9166 m white",
  "s# s symbol85 c #6d48ee m white",
  "t# s symbol86 c #240077 m black",
  "u# s symbol87 c #242466 m black",
  "v# s symbol88 c #484877 m black",
  "w# s symbol89 c #6d6d44 m black",
  "x# s symbol90 c #6d24cc m black",
  "y# s symbol91 c #484866 m black",
  "z# s symbol92 c #9148cc m white",
  "A# s symbol93 c #6d48ff m white",
  "B# s symbol94 c #9148ee m white",
  "C# s symbol95 c #b66dcc m white",
  "D# s symbol96 c #4824ff m black",
  "E# s symbol97 c #9148ff m white",
  "F# s symbol98 c #9148dd m white",
  "G# s symbol99 c #242455 m black",
  "H# s symbol100 c #6d6d77 m black",
  "I# s symbol101 c #2424dd m black",
  "J# s symbol102 c #6d24ff m white",
  "K# s symbol103 c #9124ff m white",
  "L# s symbol104 c #b648ff m white",
  "M# s symbol105 c #916dff m white",
  "N# s symbol106 c #b648ee m white",
  "O# s symbol107 c #9124dd m white",
  "P# s symbol108 c #6d24bb m black",
  "Q# s symbol109 c #240066 m black",
  "R# s symbol110 c #b66dff m white",
  "S# s symbol111 c #da6dff m white",
  "T# s symbol112 c #da48ff m white",
  "U# s symbol113 c #6d48cc m white",
  "V# s symbol114 c #244899 m black",
  "W# s symbol115 c #240055 m black",
  "X# s symbol116 c #002455 m black",
  "Y# s symbol117 c #b691ff m white",
  "Z# s symbol118 c #da91ff m white",
  "0# s symbol119 c #b66dee m white",
  "1# s symbol120 c #242444 m black",
  "2# s symbol121 c #6d4866 m black",
  "3# s symbol122 c #ff91ff m white",
  "4# s symbol123 c #002444 m black",
  "5# s symbol124 c #916dcc m white",
  "6# s symbol125 c #ffb6ff m white",
  "7# s symbol126 c #b648dd m white",
  "8# s symbol127 c #240044 m black",
  "9# s symbol128 c #6d6d55 m black",
  ".a s symbol129 c #ffdaff m white",
  "#a s symbol130 c #000044 m black",
  "aa s symbol131 c #ffffff m white",
  "ba s symbol132 c #da6dee m white",
  "ca s symbol133 c #484888 m black",
  "da s symbol134 c #914844 m black",
  "ea s symbol135 c #dab6ff m white",
  "fa s symbol136 c #6d48bb m black",
  "ga s symbol137 c #244877 m black",
  "ha s symbol138 c #482466 m black",
  "ia s symbol139 c #484855 m black",
  "ja s symbol140 c #9124ee m white",
  "ka s symbol141 c #916dee m white",
  "la s symbol142 c #b66ddd m white",
  "ma s symbol143 c #242433 m black",
  "na s symbol144 c #ff91ee m white",
  "oa s symbol145 c #da91ee m white",
  "pa s symbol146 c #b691ee m white",
  "qa s symbol147 c #916ddd m white",
  "ra s symbol148 c #482455 m black",
  "sa s symbol149 c #6d4855 m black",
  "ta s symbol150 c #da48ee m white",
  "ua s symbol151 c #484833 m black",
  "va s symbol152 c #482433 m black",
  "wa s symbol153 c #da6ddd m white",
  "xa s symbol154 c #b6b6dd m white",
  "ya s symbol155 c #6d48aa m black",
  "za s symbol156 c #244888 m black",
  "Aa s symbol157 c #480088 m black",
  "Ba s symbol158 c #482444 m black",
  "Ca s symbol159 c #6d6daa m white",
  "Da s symbol160 c #6d4899 m black",
  "Ea s symbol161 c #240033 m black",
  "Fa s symbol162 c #486daa m black",
  "Ga s symbol163 c #6d2499 m black",
  "Ha s symbol164 c #9148bb m white",
  "Ia s symbol165 c #91ffee m white",
  "Ja s symbol166 c #002422 m black",
  "Ka s symbol167 c #244866 m black",
  "La s symbol168 c #242422 m black",
  "Ma s symbol169 c #484844 m black",
  "Na s symbol170 c #916daa m white",
  "Oa s symbol171 c #002433 m black",
  "Pa s symbol172 c #486dbb m black",
  "Qa s symbol173 c #000055 m black",
  "Ra s symbol174 c #240022 m black",
  "Sa s symbol175 c #486dcc m white",
  "Ta s symbol176 c #6d2488 m black",
  "Ua s symbol177 c #244855 m black",
  "Va s symbol178 c #000033 m black",
  "Wa s symbol179 c #b6b699 m white",
  "Xa s symbol180 c #240099 m black",
  "Ya s symbol181 c #914899 m black",
  "Za s symbol182 c #244844 m black",
  "0a s symbol183 c #91b677 m white",
  "1a s symbol184 c #000022 m black",
  "2a s symbol185 c #6d9155 m black",
  "3a s symbol186 c #6d9188 m white",
  "4a s symbol187 c #b6da88 m white",
  "5a s symbol188 c #482422 m black",
  "6a s symbol189 c #6d4833 m black",
  "7a s symbol190 c #486d66 m black",
  "8a s symbol191 c #244833 m black",
  "9a s symbol192 c #6d9144 m black",
  ".b s symbol193 c #486d44 m black",
  "#b s symbol194 c #6d6d33 m black",
  "ab s symbol195 c #486d33 m black",
  "bb s symbol196 c #484822 m black",

  /* pixels */
  "..#.a.b...b...c.d.e.d.b.e.d...b...b.e.d.e.e.d.a.e.d.e.a.e.d.f.g.h.e.b.f.i...b.e.a.d.i.j.k.e.b.d...e.b.d.b.f.i.e.l.b.e.m.d.n.k.b.",
  "o.p.p.q.p.r.p.s.t.p.p.#.p.u.q.r.q.q.v.q.u.w.u.p.q.v.q.u.x.q.r.u.q.r.x.u.r.x.u.u.u.u.u.r.r.q.r.q.q.r.q.q.v.q.p.q.q.r.q.p.r.r.x.q.",
  "m.q.p.t.#.p.u.q.r.x.r.q.q.r.q.u.q.u.r.x.r.u.q.q.p.y.z.A.B.C.D.C.E.C.F.F.G.H.I.r.q.p.p.x.p.t.q.p.p.J.p.p.p.s.t.p.s.K.p.q.p.s.q...",
  "d.p.s.t.L.M.r.q.q.r.q.q.q.p.p.N.p.t.q.p.N.u.z.B.O.P.Q.P.R.Q.P.Q.E.E.C.E.S.E.T.S.U.V.q.q.t.u.x.p.p.q.q.v.q.q.q.p.s.t.#.t.N.s.N...",
  "e.p.N.K.q.q.q.L.a.#.N.p.o.L.t.s.t.r.q.W.A.X.O.O.Y.R.Y.Q.O.D.Q.Q.E.Q.E.E.E.T.E.S.S.Z.0.U.1.t.p.o.N.t.q.p.L.M.t.L.o.p.N.#.K.n.m.2.",
  "m.p.o.N.N.L.N.t.#.t.s.t.s.t.p.q.p.W.3.O.4.Y.5.O.Y.5.O.O.P.5.Q.P.Q.D.C.E.C.E.S.C.S.0.S.0.0.6.1.m.N.t.p.N.N.7.o.L.8.K.o.p.N.d.b.9.",
  "N.q.p.N.d.N.o.p.p.o.p.N.N.p.N.x..#Y.4.5.4.O.O.##O.O.a#O.Q.X.O.Q.Q.D.Q.E.C.E.E.S.C.S.0.S.0.b#0.c#q.p.J.p.o.L.t.M.L.o.p.m.N.d.a.d#",
  "m.q.o.L.t.s.t.N.N.N.N.N.L.N.e#4.4.5.4.4.a#4.O.a#4.5.O.4.5.O.Q.X.Q.O.f#Q.P.C.E.E.T.S.S.0.T.0.g#g#0.n.q.p.t.o.N.N.m.K.N.#.N.a.d.h#",
  "b.N.N.t.q.p.o.N.K.m.g.m.d..#4.O.a#4.4.i#4.a#4.j#a#O.a#4.5.O.O.5.Q.O.R.P.Q.E.C.E.E.k#S.S.0.l#Z.g#g#g#m#N.N.K.o.p.a.N.m.N.N.a.d.d#",
  "d.p.s.t.p.o.p.N.o.K.N.N.3.4.a#4.4.i#4.n#o#a#p#a#j#a#4.n#O.a#O.O.5.Q.O.D.Q.C.P.E.k#E.S.T.0.S.g#l#g#g#g#q#N.N.d.r#t.m.e.d.N.e.d.d#",
  "e.p.N.K.#.o.K.o.k.e.q.3.4.4.i#4.p#a#o#n#o#s#n#o#n#o#n#j#a#O.n#O.5.O.R.Q.P.Q.D.C.E.S.C.S.0.S.Z.g#0.g#t#u#v#r.m.N.N.e.d.b.g.k.e.w#",
  "N.o.p.N.p.o.t.p.s.t.n#a#4.4.a#o#s#o#s#p#s#i#j#s#s#p#n#n#4.n#4.a#x#5.Q.O.R.P.C.P.F.E.S.T.S.0.S.0.g#b#t#g#u#y#o.N.m.N.N.d.b.e.b...",
  "8.r.q.q.t.N.#.K.a.z#a#4.o#a#o#s#o#s#s#p#A#s#p#s#B#s#p#n#s#4.n#x#a#O.R.O.R.Q.Q.P.f#C.S.T.S.S.0.0.Z.g#g#t#u#u#q#k.N.N.N.n.b.b.k.9.",
  "N.r.q.p.s.t.N.d.C#4.##j#i#o#n#D#s#p#A#s#E#p#E#B#s#B#s#p#F#s#a#x#n#O.5.x#R.Y.C.Q.f#E.C.S.S.T.S.0.g#0.b#u#t#u#G#H#o.N.m.a.m.e.b.9.",
  "d.q.q.p.p.o.t.W.4.I#a#p#a#o#s#J#s#A#K#B#L#M#L#B#E#N#N#B#s#O#n#n#a#x#a#P#5.Q.P.R.C.E.E.C.S.S.Z.0.0.0.g#u#g#u#Q#G#a.N.N.o.N.a.e.j.",
  "k.N.N.K.N.N.q.a#4.4.a#p#i#p#s#A#J#E#L#E#E#E#E#E#N#E#B#B#N#F#s#n#n#x#5.x#5.Q.5.E.Q.E.C.S.F.S.0.0.Z.0.t#g#u#u#u#Q#G#v.e.N.a.b.e.j.",
  "d.t.q.u.t.s..#I#4.a#4.s#o#A#p#E#E#E#E#E#R#L#E#R#L#E#N#B#B#N#F#s#n#x#n#5.Q.5.Q.Q.R.E.E.T.E.T.0.S.g#0.b#g#g#u#Q#G#G#H#N.N.d.a.b.l.",
  "n.r.q.q.r.W.4.5.4.i#4.s#o#A#E#p#L#M#L#M#L#R#S#R#R#T#M#N#B#B#N#F#n#j#U#U#O.5.Q.R.E.Q.S.C.S.V#T.0.0.0.t#b#g#u#u#W#G#X#N.N.t.N.a.d#",
  "d.s.t.p.o.3.O.4.a#4.i#p#s#A#J#L#E#R#E#R#S#S#Y#Z#S#S#R#L#N#B#F#0#O#n#U#U#O.5.Q.Q.R.E.C.E.T.S.V#Z.0.0.t#g#g#u#u#u#W#1#2#d.b...b.d#",
  "a.q.p.q.W.5.4.4.a#4.s#o#s#E#K#E#M#L#R#R#S#Z#3#Z#3#Z#S#R#0#N#B#F#N#U#n#x#5.x#R.Q.P.F.E.C.S.S.T.0.0.0.b#g#g#u#u#Q#G#G#4#o.b.e.b.w#",
  "g.t.L.N.5#Y.4.a#4.n#o#s#s#J#L#E#R#R#R#S#Z#3#6#6#6#3#Z#S#0#0#N#B#7#n#U#j#U#Q.R.Q.R.Q.E.T.E.k#S.0.Z.0.g#t#g#u#u#G#u#8#G#2.b.b.e.9#",
  "m.M.K.x.O.5.I#4.n#4.s#o#s#E#E#L#E#R#Z#S#6#6#.a.a.a6#6#S#S#0#N#F#F#F#n#U#x#R.U#Q.F.Q.F.F.T.T.V#T.Z.g#Z.g#u#g#u#W#G#G#G##ap.m.b.j.",
  "d.p.t.z.O.O.##4.n#4.s#p#s#A#N#E#E#S#Z#Z#3#aaaaaaaa.a6#3#baR#7#B#F#F#U#F#U#R.x#R.Q.R.E.C.C.S.T.V#Z.0.cab#u#g#Q#G#G#G#8#1#f.e.d.da",
  "..p.p.3.P.4.O.a#4.n#o#s#s#B#E#L#E#S#S#ea6#.aaaaaaa.a6#6#baR#7#B#F#7#3.U#j#faO.F.Q.E.C.f#S.T.S.S.Z.0.g#Z.gahau#W#G#G#W#1#iak.e.9.",
  "N.K.N.O.X.O.O.a#4.n#o#s#s#jakaL#E#L#Z#3#6#.aaaaaaa.a6#3#ba0#N#B#laz#n#x#U#5.Q.Q.F.E.C.E.k#S.S.Z.0.0.g#b#g#g#haG#G#W#1#1##aN.a.d#",
  "N.J.x.P.O.5.Y.4.n#4.n#o#B#s#N#E#E#0#S#S#6#6#.a.a.a6#6#S#ba0#0#F#7#F#U#U#O.faQ.R.P.C.E.k#E.Z.S.0.Z.0.g#g#g#u#Q#y#G#W#1#1#8#K.e.9#",
  "b.K.z.P.O.O.5.4.5.4.s#j#s#s#N#B#E#L#baS#Z#6#3#6#6#ea3#ba0#0#0#F#7#U#U#x#U#Q.R.Q.Q.f#C.S.T.S.S.ca0.g#t#g#b#u#u#G#u#G#1#8#maf.b.d#",
  "f.p.A.R.Y.O.O.5.4.5.p#n#j#s#B#B#E#N#R#0#S#3#Z#Z#naS#oaS#pa7#B#qaF#U#x#U#U#Q.Q.F.Q.E.k#E.S.T.0.0.Z.0.g#u#g#u#Q#G#G#G#rama8#9#a.d#",
  "..N.B.Q.P.O.5.O.O.a#4.n#s#j#B#N#B#B#0#L#0#S#baY#babaS#0#0#qa7#laF#U#x#U#faR.Q.Q.f#C.S.C.S.caS.0.g#Z.g#u#t#u#G#u#G#8#G#1#masae.9#",
  "a.p.faP.Q.P.5.O.O.a#j#a#n#j#s#F#N#B#B#N#kataR#0#0#ta0#qa0#7#laF#5#z#U#z#R.P#faF.C.f#T.E.T.0.0.Z.0.g#g#g#u#u#G#W#G#G#8#1#1#uae.9#",
  "m.t.Q.Q.P.R.O.O.5.O.O.a#n#j#s#n#B#7#B#B#7#B#0#N#B#laN#F#lalaF#laz#z#faU#R.faF.P#F.k#E.T.S.Z.0.0.g#0.hag#u#u#W#G#G#1##a1#1#vaa.d#",
  "a.p.E.Q.P.Q.5.P.O.5.j#5.4.n#j#n#n#B#7#B#F#N#F#B#laF#B#F#waz#laxaz#U#U#R.faF.faF.yak#k#k#T.0.0.zaAag#u#g#u#G#u#W#1#1#1##amaBa..d#",
  "..N.C.E.Q.D.Q.O.X.Q.4.U#O.n#a#j#n#F#n#F#7#N#F#7#qa7#7#F#U#F#C#U#z#faU#B.yafaF.CaF.k#Dak#0.k#Z.gag#g#t#u#u#u#G#W#1#1#1#Eama1#e.9#",
  "m.o.F.E.Q.P.Q.D.Q.O.5.O.5.x#a#j#U#n#j#F#n#n#F#F#z#F#n#U#U#z#U#z#U#fafaB.yafaFaGaF.k#k#Dazaca0.v#g#g#g#haG#Q#G#X#1#8#ma1#Eamad.d#",
  "a.s.F.E.E.Q.f#Q.O.P.5.Q.5.x#a#x#5.j#U#n#n#x#F#n#U#z#n#x#U#U#faU#HafaIafaCafaFak#yak#Z.k#cazaZ.gab#u#g#u#G#u#1#W#1#1#8#maJaBae.d#",
  "t.J.yaE.C.E.R.E.Q.Y.R.O.Q.5.x#5.5.x#n#O.U#n#U#z#j#U#5.P#U#U#fafafaB.faCaB.CaB.k#k#k#DaZ.ca0.gab#gab#KaQ#G#G#G#W#1#ma#amaLaMae.9.",
  "m.J.NaS.C.E.P.F.P.Q.Q.D.O.Q.5.Q.U#O.U#5.x#U#U#5.x#U#O.faU#R.P#fafaFafaB.CaCaCaF.k#k#cak#b#cag#g#v#u#y#u#W#G#1#X#8#mamaEaOad#e.j.",
  "d.q.H.E.S.f#C.E.Q.P.C.D.O.Q.R.O.Q.5.Q.U#5.x#fa5.x#R.O.R.P#R.faR.yafaCaCaB.CaPaF.yacak#b#zab#gab#g#KahaG#G#G#1#Qama1#EamaRa..d.9#",
  "e.p.1.S.T.E.E.E.C.E.R.P.C.P.R.O.Q.R.Q.5.Q.U#R.Q.O.faQ.R.Q.F.faF.R.yayaFaCaR.SaR.k#cacaTag#zahag#KahaKaG#G#W#1#1#Ea1#OaRamam.e.9#",
  "d.p.q.S.S.C.S.E.E.C.E.Q.E.R.P.Q.R.P.Q.R.Q.R.P#Q.D.Q.R.C.Q.F.faF.F.k#F.yaF.FaF.FaT.cab#cag#g#b#Kau#haUaG#G#G#8#1#maVamaLaEal.b.9#",
  "o.t.#.U.S.S.S.E.C.S.E.Q.E.C.D.C.P.Q.f#Q.Q.F.O.F.P.C.Q.F.P.C.F.DaF.F.k#k#k#F.k#caZ.caZ.b#gag#hau#Karau#Ua8#1#1#1#VamaEaLaMaN.d.w#",
  "g.t.q.WaXaS.T.S.S.f#C.S.E.C.P.C.f#Q.E.C.D.C.Q.F.P.C.C.f#C.E.F.DaF.k#Dak#Z.k#ca0.cab#Z.g#b#Kau#u#haUaG#G#1#1#1#EamaVaLamab.d.e.w#",
  "n.r.p.q.0.T.S.S.S.S.T.E.E.T.E.C.f#C.E.E.Q.F.C.E.F.E.C.E.V#C.S.yak#k#Dacak#Z.caZ.v#b#g#g#g#Kahau#G#Uara1#1#1#8#OamaRamaLap.a.m.9#",
  "N.q.x.r.Ya0.0.S.S.T.S.S.C.V#S.C.E.E.T.E.F.C.E.F.S.C.S.C.S.f#T.T.V#6.k#cacaTacav#0.g#hag#u#u#Karau#1#UaBa4#8#mamaEaJaLasaN.d.e.d#",
  "d.N.N.t.1.0.Z.S.0.S.0.T.S.E.S.T.S.E.T.f#T.C.S.f#T.S.C.S.T.S.V#Z.V#Z.caV#b#cag#Z.g#u#g#y#u#u#G#u#raZaG#1#ma1#EaJaEaLaLaN.d.e.e.l.",
  "a.q.s.t.p.caZ.0.0.S.0.S.Z.S.S.T.S.S.T.S.S.F.T.S.S.T.S.T.0.V#T.0.ca0.ca0.v#0.g#b#gau#u#hau#u#UaG#ra1#Za1#EamaOaEaLaLaMag.0ab.e.d#",
  "e.K.1.p.p.o.0.0.0.0.l#0.Z.S.0.S.T.S.zaT.S.T.S.S.Z.S.V#Z.S.0.Z.0.0.cazab#g#v#g#g#y#g#G#u#haUaG#G#1#Ma1#Va1#maRamaJaRam.t.N.d.e.d#",
  "d.o.#.d.N.N.m#0.g#0.0.0.Z.0.l#0.S.caS.0.T.0.T.0.S.Z.0.S.ca0.g#0.Z.g#cag#gahagahau#u#KahaG#G#ZaG#Ba1#ma4#maRamaLa1ad#d.N.N.e.k.sa",
  "d.K.q.J.q.p.q.g#g#0.g#Z.g#0.l#0.0.0.Z.0.S.Z.zaZ.0.0.0.Z.0.0.g#0.b#g#gab#Kab#u#Kahau#G#UaG#raZa1#1#1#mamaEaJaEaLaLap.N.d.m.e.e.2a",
  "8.K.N.N.K.o.p.Wat#g#g#g#0.g#Z.g#0.0.g#l#Z.0.ca0.g#0.Z.g#0.g#g#g#b#g#u#b#Kau#y#u#u#iaG#G#G#ZaBa1#1#maOaEaLamaRaJar#a.N.m.a.a.g.9#",
  "d.p.t.q.p.o.t.s.3ag#Q#g#b#g#0.g#g#0.t#0.b#g#zaZ.g#t#0.g#b#g#g#g#u#g#u#u#haKahaG#UaG#iaG#1#Za1#1#EamaEaJamaRaLad#d.N.d.g.d.b.l.9.",
  "b.t.p.q.t.N.N.K.N.q#g#u#g#g#t#u#g#g#Z.g#g#g#b#g#g#g#g#b#t#u#g#u#g#u#u#u#W#u#iaG#G#UaBaG#1#ma1#maVamamaRaLaJa9.o.L.a.N.m.e.n.d.d#",
  "a.q.p.p.p.J.q.t.s.K.v#Q#g#u#g#u#b#Q#g#g#g#u#g#b#g#g#u#u#t#hau#u#u#u#u#W#G#u#G#8#G#1#G#4#Ea1#Eamama1amaLaRauaN.d.p.o.d.d.b.b.e.d#",
  "d.q.N.N.m.t.o.K.m.N.q.q#u#u#Q#u#u#g#u#Q#g#u#u#g#b#u#u#u#Q#u#u#u#G#u#W#G#G#G#W#1#1#8#4#1#EamamaVamaLaRaLauaq.K.o.K.s.N.a.d.g.d.9#",
  "e.p.p.t.N.#.4aN.o.p.o.K.q#u#G#Q#u#u#u#Q#u#u#u#u#hag#G#Q#u#G#u#G#W#u#G#1#W#1#G#1##a1#maEamaEaOaLaEaLaLaMam.t.o.K.e.g.d.d.g.a.e.l.",
  "e.p.N.d.N.s.m.d.b.N.N.d.o.H#G#u#W#u#G#u#u#W#u#G#u#hau#W#G#u#G#G#8#X#G#8#G#1#1#Ea1#Oa8#maRaOamaRaLaLa9#N.N.m.a.m.N.t.N.N.d.e.d.d#",
  "e.q.q.m.N.N.N.m...m.N.t.N.d.N.u#G#QaG#G#Q#G#G#G#W#u#raG#G#X#W#G#1#1#W#1#1##ama1#EamaVamaLaEaLaJa5ae.K.N.e.k.m.o.d.N.N.e.d.b.b.9#",
  "N.p.o.p.p.N.N.t.o.K.N.N.N.t.N.q.j.X#W#G#1#G#W#G#G#8#UaQ#1#G#8#1#G#1#Va1#8#mama#amaLaEaLaOaRaLaw#p.N.t.N.N.N.N.a.N.N.N.m.a.e.e.l.",
  "e.N.K.q.N.g.d.N.N.d.b.b.k.e.m.a.m.o.2#1#Qa1#1#W#1#G#8#G#1#G#1#Ea1#4#Ea1#EamaOaEaLamaRaOaLa6aN.a.N.d.8.m.a.N.K.m.a.e.g.d.d.g.d.d#",
  "e.K.q.o.L.a.g.d.d.N.g.a.m.N.N.a.g.N.N.N.2.1##a1#1#8#1#1#1#W#ma1#Vama1#Eama1amamaRaLaJasa7.e.b.e.m.d.N.e.d.m.n.N.m.e.k.e.a.b.e.l.",
  "N.J.p.p.M.t.d.b.e.d.g.k.n.g.k.e.b.d.b.e.b.p.e.7aEa1#Va1#maBa8#maOaEamama1amaLaEaMak.p.e.e.k.8.d.N.d.e.N.d.e.d.n.m.d.e.N.N.b.d.9#",
  "o.q.r.q.N.a.e.k.8.d.b.e.k.e.b.b.j.b.l.i.j.b.m.d.b.N.f.sasa8aBama1#mavaMa9#b.N...n.d.g.d.e.e.k.n.k...b.e.d.g.0ab.b.n.m.a.e.e.b.2a",
  "8.r.p.t.n.b.d.e.f.b.b...i...c...b.b...f.b.b...d.b.b.e...i...h#d#e...b.l.b...e.e.b...e.d.b.d#b.f.i.d#..l.e.e...i.f.b.e.b.b.f.b.w#",
  "e.e.9a9.w#saw#ua6auaw#9.w#6a.b9.w#9.uaw#9.w#6auaw#w#9.w#9.#bMa9.6a.b6a9.w#9.w#9.ab9.bb6aMa6aw#Ma#b9.9..b6aw#9.ab9.9.w#9.#bMaw#9.",
};
