/* XPM */

static const char *
white_piece_data[] = {
  /* width height num_colors chars_per_pixel x_hot y_hot */
  "64 64 197 2 0 0",

  /* colors */
  ".. s symbol1 c #998866 m white",
  "#. s symbol2 c #ddaa88 m white",
  "a. s symbol3 c #bbaa88 m white",
  "b. s symbol4 c #997766 m black",
  "c. s symbol5 c #aa9977 m white",
  "d. s symbol6 c #bb9977 m white",
  "e. s symbol7 c #999977 m white",
  "f. s symbol8 c #aa8866 m white",
  "g. s symbol9 c #aa8877 m white",
  "h. s symbol10 c #aaaa77 m white",
  "i. s symbol11 c #998877 m white",
  "j. s symbol12 c #bb9988 m white",
  "k. s symbol13 c #999966 m white",
  "l. s symbol14 c #998855 m black",
  "m. s symbol15 c #aa9966 m white",
  "n. s symbol16 c #aaaa88 m white",
  "o. s symbol17 c #997755 m black",
  "p. s symbol18 c #ddbb99 m white",
  "q. s symbol19 c #eecc99 m white",
  "r. s symbol20 c #eeccaa m white",
  "s. s symbol21 c #ffcc99 m white",
  "t. s symbol22 c #eeddaa m white",
  "u. s symbol23 c #ddbb88 m white",
  "v. s symbol24 c #ffddbb m white",
  "w. s symbol25 c #ffddaa m white",
  "x. s symbol26 c #dddd99 m white",
  "y. s symbol27 c #ffccaa m white",
  "z. s symbol28 c #ffffbb m white",
  "A. s symbol29 c #ffeecc m white",
  "B. s symbol30 c #eedd99 m white",
  "C. s symbol31 c #ffeebb m white",
  "D. s symbol32 c #ffeeaa m white",
  "E. s symbol33 c #ffdd99 m white",
  "F. s symbol34 c #ddccaa m white",
  "G. s symbol35 c #ccaa77 m white",
  "H. s symbol36 c #eeddbb m white",
  "I. s symbol37 c #eeeebb m white",
  "J. s symbol38 c #eeccbb m white",
  "K. s symbol39 c #ccccbb m white",
  "L. s symbol40 c #ddccbb m white",
  "M. s symbol41 c #bbbbaa m white",
  "N. s symbol42 c #bbaabb m white",
  "O. s symbol43 c #aaaaaa m white",
  "P. s symbol44 c #bbaaaa m white",
  "Q. s symbol45 c #ccbb99 m white",
  "R. s symbol46 c #ccccaa m white",
  "S. s symbol47 c #ddbbaa m white",
  "T. s symbol48 c #ddcc99 m white",
  "U. s symbol49 c #eebb99 m white",
  "V. s symbol50 c #eebbaa m white",
  "W. s symbol51 c #ccbb88 m white",
  "X. s symbol52 c #ddcccc m white",
  "Y. s symbol53 c #ccbbcc m white",
  "Z. s symbol54 c #bbccbb m white",
  "0. s symbol55 c #ccbbbb m white",
  "1. s symbol56 c #bbbbbb m white",
  "2. s symbol57 c #aabbaa m white",
  "3. s symbol58 c #999999 m white",
  "4. s symbol59 c #999988 m white",
  "5. s symbol60 c #bbaa99 m white",
  "6. s symbol61 c #ccbbaa m white",
  "7. s symbol62 c #ffccbb m white",
  "8. s symbol63 c #ddaa99 m white",
  "9. s symbol64 c #887766 m black",
  ".# s symbol65 c #bbaa77 m white",
  "## s symbol66 c #eebb88 m white",
  "a# s symbol67 c #eecccc m white",
  "b# s symbol68 c #cccccc m white",
  "c# s symbol69 c #bbbbcc m white",
  "d# s symbol70 c #aaaa99 m white",
  "e# s symbol71 c #aa99aa m white",
  "f# s symbol72 c #99aa99 m white",
  "g# s symbol73 c #aa9999 m white",
  "h# s symbol74 c #998899 m white",
  "i# s symbol75 c #888888 m white",
  "j# s symbol76 c #ccaa88 m white",
  "k# s symbol77 c #cc9977 m white",
  "l# s symbol78 c #aa9988 m white",
  "m# s symbol79 c #777755 m black",
  "n# s symbol80 c #ddddcc m white",
  "o# s symbol81 c #ccccdd m white",
  "p# s symbol82 c #aaaabb m white",
  "q# s symbol83 c #9999aa m white",
  "r# s symbol84 c #665544 m black",
  "s# s symbol85 c #eeddcc m white",
  "t# s symbol86 c #dddddd m white",
  "u# s symbol87 c #998888 m white",
  "v# s symbol88 c #887777 m black",
  "w# s symbol89 c #ddcc88 m white",
  "x# s symbol90 c #ccbb77 m white",
  "y# s symbol91 c #ffddcc m white",
  "z# s symbol92 c #ddccdd m white",
  "A# s symbol93 c #eedddd m white",
  "B# s symbol94 c #888899 m white",
  "C# s symbol95 c #888877 m white",
  "D# s symbol96 c #777777 m black",
  "E# s symbol97 c #776644 m black",
  "F# s symbol98 c #ddddee m white",
  "G# s symbol99 c #887788 m white",
  "H# s symbol100 c #777766 m black",
  "I# s symbol101 c #bbbb88 m white",
  "J# s symbol102 c #ccaa99 m white",
  "K# s symbol103 c #eeddee m white",
  "L# s symbol104 c #eeeedd m white",
  "M# s symbol105 c #778877 m black",
  "N# s symbol106 c #bb9966 m white",
  "O# s symbol107 c #776655 m black",
  "P# s symbol108 c #eeeeee m white",
  "Q# s symbol109 c #ffddee m white",
  "R# s symbol110 c #aabbbb m white",
  "S# s symbol111 c #666677 m black",
  "T# s symbol112 c #cccc99 m white",
  "U# s symbol113 c #ffeedd m white",
  "V# s symbol114 c #ffeeee m white",
  "W# s symbol115 c #666666 m black",
  "X# s symbol116 c #886655 m black",
  "Y# s symbol117 c #ffffee m white",
  "Z# s symbol118 c #ffeeff m white",
  "0# s symbol119 c #ffffff m white",
  "1# s symbol120 c #ffdddd m white",
  "2# s symbol121 c #776666 m black",
  "3# s symbol122 c #667766 m black",
  "4# s symbol123 c #665566 m black",
  "5# s symbol124 c #666655 m black",
  "6# s symbol125 c #eeeecc m white",
  "7# s symbol126 c #eeccdd m white",
  "8# s symbol127 c #ddeedd m white",
  "9# s symbol128 c #bbcccc m white",
  ".a s symbol129 c #99aaaa m white",
  "#a s symbol130 c #776677 m black",
  "aa s symbol131 c #665555 m black",
  "ba s symbol132 c #775555 m black",
  "ca s symbol133 c #ddeeee m white",
  "da s symbol134 c #556655 m black",
  "ea s symbol135 c #555555 m black",
  "fa s symbol136 c #ddddaa m white",
  "ga s symbol137 c #eeffee m white",
  "ha s symbol138 c #ccddcc m white",
  "ia s symbol139 c #889988 m white",
  "ja s symbol140 c #554455 m black",
  "ka s symbol141 c #cccc88 m white",
  "la s symbol142 c #ddbbcc m white",
  "ma s symbol143 c #889999 m white",
  "na s symbol144 c #667777 m black",
  "oa s symbol145 c #555544 m black",
  "pa s symbol146 c #778888 m white",
  "qa s symbol147 c #554444 m black",
  "ra s symbol148 c #555566 m black",
  "sa s symbol149 c #444444 m black",
  "ta s symbol150 c #887755 m black",
  "ua s symbol151 c #eeeeff m white",
  "va s symbol152 c #444433 m black",
  "wa s symbol153 c #775544 m black",
  "xa s symbol154 c #445555 m black",
  "ya s symbol155 c #554433 m black",
  "za s symbol156 c #443344 m black",
  "Aa s symbol157 c #ddddbb m white",
  "Ba s symbol158 c #ccdddd m white",
  "Ca s symbol159 c #445544 m black",
  "Da s symbol160 c #666644 m black",
  "Ea s symbol161 c #ccaabb m white",
  "Fa s symbol162 c #334433 m black",
  "Ga s symbol163 c #443333 m black",
  "Ha s symbol164 c #333333 m black",
  "Ia s symbol165 c #333344 m black",
  "Ja s symbol166 c #ddffdd m white",
  "Ka s symbol167 c #778866 m black",
  "La s symbol168 c #333322 m black",
  "Ma s symbol169 c #bbbb99 m white",
  "Na s symbol170 c #99aa88 m white",
  "Oa s symbol171 c #886666 m black",
  "Pa s symbol172 c #332222 m black",
  "Qa s symbol173 c #889977 m white",
  "Ra s symbol174 c #667755 m black",
  "Sa s symbol175 c #99aacc m white",
  "Ta s symbol176 c #556644 m black",
  "Ua s symbol177 c #332233 m black",
  "Va s symbol178 c #223322 m black",
  "Wa s symbol179 c #445533 m black",
  "Xa s symbol180 c #222222 m black",
  "Ya s symbol181 c #997777 m white",
  "Za s symbol182 c #555533 m black",
  "0a s symbol183 c #cc9988 m white",
  "1a s symbol184 c #444422 m black",
  "2a s symbol185 c #777788 m black",
  "3a s symbol186 c #334422 m black",
  "4a s symbol187 c #445522 m black",
  "5a s symbol188 c #556666 m black",
  "6a s symbol189 c #775566 m black",
  "7a s symbol190 c #334444 m black",
  "8a s symbol191 c #222233 m black",
  "9a s symbol192 c #bb8877 m white",
  ".b s symbol193 c #bb8866 m white",
  "#b s symbol194 c #777744 m black",
  "ab s symbol195 c #665533 m black",
  "bb s symbol196 c #664444 m black",
  "cb s symbol197 c #664433 m black",

  /* pixels */
  "..#.a.........b.c.d.e.f.c.c.......f.e.c.c.g.h.a.i.c.c.j.e.c.i.d.k.g.k.i.l.b.m.g.n.c.l.b.k.c.f.h...i.f.c.m.i.o.c.o.f.c.d.h.j.m...",
  "p.q.q.r.s.t.q.p.p.q.q.u.q.v.w.t.w.r.x.y.z.A.v.B.r.B.r.C.v.y.t.C.y.D.v.v.D.v.C.C.C.C.C.w.D.w.t.w.r.t.y.t.E.F.q.y.w.w.w.s.w.D.v.F.",
  "G.r.q.p.u.q.v.w.t.v.w.r.w.t.w.v.t.C.w.H.w.I.t.y.q.I.J.K.L.M.N.M.O.O.P.P.Q.R.t.w.S.q.q.H.q.T.r.p.q.F.q.q.T.q.p.U.p.u.q.y.q.T.V.k.",
  "c.U.q.Q.u.r.t.w.r.r.w.t.r.p.q.u.p.T.w.p.W.d.H.X.K.Y.Z.0.1.1.0.2.N.O.P.O.3.O.3.4.5.6.q.q.F.7.w.r.T.q.t.r.t.r.q.q.p.U.8.u.Q.#.Q.9.",
  "d.W.u.p.r.r.q.p..#u.Q.p.##p.T.W.r.t.q.H.a#b#b#K.X.b#b#1.K.c#0.M.N.2.N.O.d#e#f#g#h#3.i#a.F.p.T.Q.j#q.F.q.p.U.T.p.u.p.p.#.W.k#l#m#",
  "d.r.W.#.j#u.p.W.p.p.p.p.##Q.r.r.T.y.n#X.b#n#o#X.b#X.b#K.b#Y.1.0.1.M.p#M.O.e#d#q#4.3.h#i#i.3.q..#p.W.p.u.a.W.u.p.k#W.p.p.u.j...r#",
  ".#r.r.G.a.G.Q.U.F.u.p.#.Q.#.W.p.s#t#X.t#X.t#X.o#n#X.o#X.b#K.Y.Z.0.1.N.M.O.O.O.g#q#4.3.u#i#i#v#d#q.T.r.T.p.p.u.S.w#U.p.x#a.d.a.m#",
  "d.r.p.u.p.q.Q.u.a.#.a.#.j#u.y#n#t#t#z#n#A#t#t#z#n#z#n#z#b#X.K.Y.Z.0.1.N.2.N.d#O.3.g#3.B#u#i#C#D#C#Q.p.F.T.8.W.d.u.j#j#W.j#a.d.E#",
  "k.#.j#p.T.r.p.j#W..#G.d..#s#A#t#t#A#A#t#A#F#A#A#t#t#X.t#X.b#X.b#b#1.0.1.1.O.P.O.3.O.3.u#4.i#i#G#D#H#l#W.j##.Q.p.W.j#G.I#j#d.c.H#",
  "d.q.p.T.p.p.Q.u.W.J#W.j#s#t#A#t#K#L#K#L#K#L#K#t#A#L#z#t#t#X.X.b#b#b#0.1.1.M.p#O.g#O.3.3.u#u#i#M#G#H#D#i.j#j.d.N#Q..#d..#j.h.d.O#",
  "c.U.W.#.W.p.W.8.m.c.j#s#t#A#P#A#P#K#L#P#Q#P#L#K#L#K#A#t#t#A#b#X.b#b#0.b#1.P.R#P.O.3.d#h#3.i#u#i#M#v#S#H#v#u.a.G.j#j.m.d.f.c.f.O#",
  ".#p.p.p.u.p.T#U.p.S.n#A#L#F#U#K#P#P#V#P#V#P#V#P#A#P#K#L#A#t#z#n#b#X.Y.Z.0.1.p#M.O.g#O.3.h#4.i#i#v#D#D#H#W#v#W.j#j#j#j#d...f.c.X#",
  "a.w.J.T.T.p.j#W.j.s#A#L#K#P#L#K#Y#Z#V#V#0#P#V#V#V#P#P#1#F#A#t#n#z#b#L.c#K.1.1.O.P.O.q#d#h#4.i#i#i#v#D#2#3#4#..c.a.j#j#d.f.f.f.5#",
  ".#7.t.q.p.u.j.j#6#7#8#K#L#V#P#V#Z#Y#Z#Y#Z#Y#Z#Y#Z#P#U#K#P#A#t#A#X.o#L.9#0.9#P.1.O.P..ag#3.4.h#i#C#D#D##aH#W#aae.#.a.j#j.c.N#..ba",
  "c.r.t.q.p.p.W.A.z#A#L#K#P#V#Y#Z#Y#0#Z#0#0#Y#0#Z#Y#V#Z#L#Q#L#F#A#X.t#b#0.b#1.1.1.P.O.O.3.g#3.i#u#i#M#v#S#H#W#aaaaI#J#j#a.Q.d.l#m#",
  "f.J#u.W.G.W.p.X.A#caA#V#P#V#0#V#0#0#0#0#0#0#0#0#0#V#V#Z#L#P#A#A#z#t#b#X.Z.0.1.1.N.O.d#e#3.3.4.i#i#v#D#D#2#W#W#aadas.n.d.a.i.c.X#",
  "c.T.H.F.T.F.H.t#A#F#U#P#V#0#V#0#0#0#0#0#0#0#0#0#0#0#V#V#V#P#K#A#t#X.n#b#Y.Z.Y.M.p#P.O.d#q#4.h#i#i#C#v#D#S#H#aadaeai.j#W..#c.c.O#",
  "a.fay.t.fav.X.t#A#P#K#V#gaV#0#0#0#0#0#0#0#0#0#0#0#0#V#0#V#K#L#A#t#7#haX.Y.Z.0.1.p#M.e#d#3.3.h#iai#v#v#D#3#2#4#daaajakaj#Q.a..#H#",
  "c.U.p.T.W.a#t#t#A#P#K#V#Y#Z#0#0#0#0#0#0#0#0#0#0#0#0#0#V#V#P#Q#L#t#z#n#b#laZ.Y.M.p#M.O.e#3.g#mau#i#C#D#v#na2#5#4#eaoa2#m.c.f...O#",
  "d.r.t.r.q.X.t#t#A#K#V#P#Y#Z#0#0#0#0#0#0#0#0#0#0#0#0#0#V#Z#P#U#A#F#n#z#X.b#K.1.1.N.2.P.q#g#3.4.B#i.pav#D#H#W#W#aaeaeaqaW.d.f.i.E#",
  "c.p.u.#.n#X.t#A#t#V#P#V#V#0#0#0#0#0#0#0#0#0#0#0#0#0#0#V#0#Q#L#K#t#s#o#X.b#K.c#M.1.P.O.e#f#3.u#h#i#C#D#D#D#2#5#raaaoasa9.m.i.f.X#",
  "a.p.p.u.X.o#s#t#K#L#P#V#Z#Y#Z#0#0#0#0#0#0#0#0#0#0#0#0#Z#Y#K#U#K#t#n#z#X.b#K.1.1.N.O.O.O.g#3.4.B#i.pav#D#2#3#4#W#eaoaqasaE.g.c.ta",
  "j.T.p.H.X.b#t#A#A#K#L#V#uaY#0#0#0#0#0#0#0#0#0#0#0#0#0#V#Z#L#Q#L#t#z#n#z#0.9#0.1.M.p#O.g#d#3.h#i#u#pav#D#H#W#W#aaeaoajaval#m.g.E#",
  "..p.q.X.b#n#z#t#A#L#K#V#V#0#Y#0#0#0#0#0#0#0#0#0#0#0#0#V#V#P#K#A#A#t#b#X.b#0.Z.N.1.O.O.g#f#g#h#i#i#C#v#D#2#W#W#5#eajaoasaO#f.e.wa",
  "n.##Q.K.b#X.z#t#t#A#V#P#V#V#0#0#0#0#0#0#0#0#0#0#0#0#Z#V#V#P#A#A#t#t#X.b#Y.K.1.1.P.O.P.O.g#3.4.4.u#i#C#v#2#W#W#aaeaoaqasava5.c.H#",
  "j#r.t.b#b#X.X.t#t#A#K#U#P#Z#V#0#0#0#0#0#0#0#0#0#0#Z#Y#V#K#V#A#t#t#z#X.b#K.1.0.1.1.O.P..ag#3.h#u#B#v#pav#D#2#W#O#eaqaxayazaW..#5#",
  "f.j#Aab#0.X.BaX.A#t#K#U#P#V#V#Z#Y#Z#0#0#0#0#0#V#0#V#Z#P#V#A#K#n#t#X.o#K.Y.K.1.1.N.O.d#e#3.4.h#i#i#v#D#H#D#W#4#W#aar#Casazam.g.Da",
  "c.r.F.c#K.X.b#z#n#A#K#A#P#L#Z#V#V#0#V#0#V#0#Y#Z#V#Z#P#V#A#P#A#t#X.X.b#b#0.9#Ea2.N.d#O.3.3.h#4.i#G#M#v#2#na5#4#eaaaeaoaqasaO#.#2#",
  "..W.0.K.0.b#b#X.t#z#A#A#L#K#V#P#V#V#gaZ#V#V#0#V#P#V#K#U#K#L#A#z#X.b#X.b#1.0.1.M.O.O.g#q#4.3.i#u#D#v#D#D#W#W#aadajaoajasaya5#c.O#",
  "j.T.0.1.K.b#b#X.X.z#n#t#K#L#Q#L#V#K#V#V#P#V#P#V#P#1#P#K#A#A#A#n#b#X.b#L.1.0.1.P.M.e#d#3.3.u#i#i#v#M##aH#W#W#aaeaeaqasasazar#k.O#",
  "c.r.M.0.1.b#b#K.z#X.z#n#A#K#8#1#K#V#L#V#K#V#L#Q#L#K#A#A#t#A#n#z#X.X.K.0.1.0.M.P.O.P.d#3.h#iau#D#i#D#H##a5#W#aaeaqaCasazavazaa.m#",
  "d.F.P.1.1.0.9#X.b#X.b#z#s#t#A#K#A#L#K#A#L#K#L#K#A#A#t#7#t#n#z#L#b#X.Z.0.1.P.M.P.O.5.e#4.3.i#u#D#C#D##aW#W#5#eaaasaqasaFaGaHag.Da",
  "..W.N.M.N.Z.0.b#Y.b#X.n#z#n#z#A#t#A#A#t#A#P#A#t#7#t#n#z#n#z#b#X.K.Y.0.M.1.M.P.O.O.g#d#l#h#i#C#i#D#H##aW#W#aaeaoajaCaGavaHaHaj.E#",
  "l#q.O.P.1.1.1.0.K.b#b#X.b#z#X.t#A#X.t#A#t#A#z#n#A#z#b#n#X.b#X.Y.K.0.1.0.M.M.P.O.d#g#d#l#4.4.i#M#v#H#S#5#W#aaeaqaCaqaIavaHaGac.O#",
  "a.p.M.P.O.1.1.0.1.b#0.b#X.b#X.t#X.X.t#z#n#z#n#z#X.haX.b#b#lab#K.0.1.0.JaP.P.2.5.d#g#f#l#4.4.C#M#v#KaW#W#aaaaeaCaqasazaHaLasad.O#",
  "Q.r.M.O.O.M.N.1.1.0.Z.Y.b#K.X.b#z#b#X.X.b#t#X.b#X.b#Y.b#L.c#K.0.0.M.1.P.M.P.MaO.g#Nag#4.l#C#C#M#v#3#H#5#W#oajaqaCazavaHaHaoaf.r#",
  "a.q.6.q#P.2.P.1.O.0.c#Z.0.Y.K.b#b#b#lab#b#L.b#b#b#Y.K.Y.K.1.0.1.6.1.M.P.P.MaM.d#d#g#4.4.e.i#C#H#D#H#3#O#daeaqasasavazaLaHaO#h.Oa",
  "a.q.R.e#O.d#N.O.M.1.N.1.Z.0.c#K.Y.K.Y.K.Y.K.9#Y.0.K.c#0.1.0.1.M.M.N.MaP.M.MaM.d#O.f#u#e.u#C#M#9.naO#3#5#5#eaqasavasaHaHaPa..c.O#",
  "c.U.fag#d#e#O.O.2.N.M.N.1.1.1.0.1.K.1.Y.Z.0.c#0.1.1.K.1.N.M.1.P.M.P.O.5.M.MaM.O..ag#3.Qai.v#D#H#3#2#Raea5#oaoasazaFaHaPaHaG.i.O#",
  ".#T.r.3.g#q#d#O.O.P.p#M.N.M.1.N.1.1.1.1.1.M.0.1.1.N.1.M.p#M.P.P.2.e#5.MaO.MaO..aSa3.3.i.C#D#H#H#W#W#5#5#oaTaqasaGaFaHaUaVao...2#",
  "a.q.W.5.3.3.e#d#O.e#O.2.P.N.2.N.M.N.2.1.N.M.N.1.2.P.1.P.p#O.5.O.P.d#g#d#d#f#d#q#.a3.4.C#9.D#W#H#W#5#eaDaeaoaWazavaHaHaXar#a.c.O#",
  "N#T.r.T#h#3.3.g#O.3.O.O.P.O.O.P.O.1.O.P.1.O.P.R#P.O.P.O.O.O.g#O.d#g#d#d#4.d#3.n.ma4.YaM#H#2#W#2#da5#aaTaeaWaqaFaGaHaUaVaf.c.c.Da",
  "j.r.B.p.mau#3.g#3.3.O.g#O.O.g#O.O.O.P.O.O.O.P.O.O.O.P..ag#O.g#3.g#f#g#n.4.l#4.4.iaYaC#na2#W#2#da5#aaoaeaWaoaCaGaHaLaUaXaB.j#c.m#",
  "j.w.v.r.n.3.u#3.3.3.3.g#3.O.g#O.3.O.O.d#e#O.O.g#O.d#e#e#f#3.g#3.u#3.4.n.4.u#4.i.C#v#H#S#H#5#4#daaaoaeaoaWaoavaHaHaLaXa5#j#c.c.O#",
  "c.j#p.p.T.iau#h#iah#3.3.g#3.3.g#f#e#g#f#e#d#q#g#f#g#e#3.3.4.3.h#iau#4.i#4.C#C#v#M##aH#W#W#5#4#TaaaCaoaqaCavaWaHaUaLaXaj#h.f.c.9.",
  "a.T.V.T.u.g#i#i#u#i#3.4.h#3.3.4.3.g#3.3.3.g#3.3.3.g#3.h#4.h#iau#i#i#u#iaC#M#v#D#H#D#3#O#4#daaaeaoaoaCasaZavaFaHaPaXaoad.c...g.m#",
  "g.u.p.F.p.q.i#i#G#iai#u#u#mau#3.u#3.3.u#3.3.4.h#3.4.h#u#mau#i#i#i#v#i#C#C#M#H#v#3#2#W#5#5#eaeaeaoaoavaCavavavaXaPaXaI#j#j#h.j.O#",
  "m.8.W.G.0aW.d#v#i#C#G#i#i#4.i#u#B#4.u#B#4.i#3.u#i#3.u#i#i#i#i#v#i#v#M#v#M#H#D#H#H#5#W#aadaaaoaCaqaCayaCaFa1aHaXaXaO#.#j#a.c.f.5#",
  "c.u.T.H.F.T.q.v#pav#C#2ai#C#u#i#i#i#u#i#i#u#i#i#i#4.G#i#C#G#C#D#G#D#H#M#H#D#H#2#RaW#5#eaoaeaoaoavaCavavavaFaPaXaXaE.a.d.n.N#g.m#",
  "j.Q.x#j#W.p.T.Q.D#v#D#D#i#v#C#2ai#C#i#v#i#i#C#G#i#C#i#v#2av#M#D#2#D#D#2#H#3#H#5#5#5#daaaoaCaoaqasaWavaFa1aUaVaXam.j#a.d.a.a.g.m#",
  "d.Q.q.F.T.p.Q.T.j.H#D#D#D#v#D#C#2av#M#G#D#C#G#M#v#v#pav#D#D#H##aH##aW#3#2#RaW#5#5#dar#oaoaCaqaCavavava3aHaXaXata.#a.k#c.c.f.taE#",
  "..p.T.r.Q.u.W.j#W.i.H##aD#H#D#D#D#v#D#D#D#v#D#H#v#D#v#D##a3#2#D#W#W#5#W#4#5#5#5#TaeaoaoaoaCayaWavaFavaLaXaXar#Q.J#W.G.j.c.c.c.ta",
  "a.r.T.U.q.F.fap.p.j#i.W#D#2#na2#D#H##aH#D#2#D#H#S#9.D##a3#2#W#W#W#aaW#eaaaeadar#oadaoaWaqaWasava4aHaLaXaXaqa.#j#Q.W.a.N#..g.m.2#",
  "d.T.u.a.j#p.u.W.j#a.d.i.W#W#2#W#H#W##aW#H#W#2#na2#W#H#2#W#W#4#5#aa5aaaeaeaoajaqaCaoavaoaWavavaFaHaPaXaXaZar.W.W.p.Q.j#a.d.c.c.O#",
  "c.q.T.p.W.#.W.a.Q.U.W.Q.i.4#5#W#W#W#O#W#W#W#W#6a5#W#W#2#5aaa5#eaaaeaeaeaqaoasasasasaGavaHaGaHaVaUaXaXar#.#Q.p.W.g.d.h.d.c.j.c.ta",
  "c.p.j#G.W.p.d.d.f.W.a..#5.c.aa5#ra5#4#5#4#daW#aaW#eaaa2#daaaeaeaqaeaqaeasasayasa7aGavaHaHaUaLaXaXaXataQ..#j#d.a.W.J#W.j#c.d.c.O#",
  "d.t.V..#k#W.j#d.m.h.Q.p.x#a.a.5#aaeaaaeaaa5aeaaaeaaaoaaaraoaeaqaeasaqasasavasavazaHaHaLaHaPaXaXaHam.Q.j#d.m..#j#a.a.G.j.c.f...O#",
  ".#r.p.q.p.u.j#Q.W.Q.W.j#a.u.J#E.C#oaeaaaqaeaeaoajaoaeaqadajaqasaoasasaGasavaHazaHaLaHaLa8aPaXaDaE.a.p.j#I#j#a.j#a.j#j#d.a.c.g.m#",
  "c.#.u.F.u.g.d.W.j#c.m.f.m.d..#l#G.p.m#jaoasaeaqasaoasaqajaoasasasavazavaGaFaHaHaUaLaUaVaXar#G.a.a.j..#j#.#j#a.j#.#c.c.d.a.d.g.ta",
  "..q.p.T.W.j#d.c.a.d.j#d.a.j#j#d.j#j#.#u.9.sasaqasasasasayaCaqazavaHasaHaGaLaHa8aLaPaXa5#j#m.f.c..#d.a.c.d..#j.j#h.9am.c.j.m.g.m#",
  "a.r.q.T.V.T#d.f.c.c.d.m.j.g.N#c.g.m..bi.m.E.c.2#vasaGasaGavasasaGaHaHaHaLaUaLaXar#e.q.d.f.c.c.a.d.a.d.n.d.d.c.l#.#c.d.a..#d.i.ta",
  "5.q.v.F.W.j.m.c.j.c.m.g.m.g.f.f...o.b.l.b.m.c.d.f.W.c.taaavayasaHaGasaoaX#k.G.i.c.d.c.l#c.f.c.j.k...f.f.n.d.m...g.c.j.h.d.i.g.#b",
  "j.w.fap.d.i.k.g.c.....b.....o.f.i.............c.g.k.f.....taX#o.......b.l.i.g.c.l.g...c...b...f.9.tata..f.e.f.9...f.c.g.......ba",
  "..h.O#r#r#r#Davayaqaabaaaboaoaabr#qar#r#oaaboayaabDar#aaZar#yar#qaZar#bbZar#DabboaabGayaZaoabbZar#oacbr#oaZar#r#qaDaabqar#r#r#oa",
};
